<?xml version="1.0" encoding="utf-8"?>
<!-- Generator: Adobe Illustrator 19.0.0, SVG Export Plug-In . SVG Version: 6.00 Build 0)  -->
<svg version="1.1" id="Layer_1" xmlns="http://www.w3.org/2000/svg" xmlns:xlink="http://www.w3.org/1999/xlink" x="0px" y="0px"
	 viewBox="-129.3 414 442 258.5" style="enable-background:new -129.3 414 442 258.5;" xml:space="preserve">
<style type="text/css">
	.st0{fill:#3B3A4A;}
	.st1{fill:#171626;}
	.st2{fill:none;stroke:#FFFFFF;stroke-width:3;stroke-miterlimit:10;}
	.st3{fill:#1EB9D7;}
	.st4{fill:#FFFFFF;}
	.st5{enable-background:new    ;}
</style>
<rect x="-129.3" y="414" class="st0" width="442" height="258.5"/>
<g>
	<g>
		<path class="st1" d="M24.8,443.7c0,0,0-0.2,0-0.7c0-0.3,0.1-0.8,0.1-1.4c0-0.1,0-0.2,0-0.3c0-0.1,0-0.2,0-0.2c0-0.1,0-0.1,0-0.1
			c0,0,0.1,0,0.1,0c0.2,0,0.4,0,0.8,0.1c0.6,0.1,1.6,0.1,2.7,0.3c2.3,0.3,5.5,0.9,9.3,1.9c1.9,0.5,3.9,1.1,6,1.8
			c2.1,0.8,4.3,1.6,6.5,2.6c2.2,1,4.5,2.1,6.7,3.3c1.1,0.6,2.2,1.2,3.3,1.9c1.1,0.7,2.2,1.4,3.3,2.1c2.1,1.4,4.2,3,6.2,4.6
			c2,1.6,3.8,3.3,5.5,5c1.7,1.7,3.4,3.3,4.8,5c1.5,1.6,2.7,3.3,3.9,4.8c1.1,1.6,2.2,2.9,3,4.3c0.8,1.3,1.6,2.4,2.1,3.4
			c1.1,1.9,1.7,3,1.7,3l-2.2,1.5c0,0-0.8-1-2.1-2.6c-0.7-0.8-1.6-1.8-2.5-2.9c-0.9-1.2-2.2-2.3-3.4-3.7c-1.3-1.3-2.6-2.7-4.2-4.1
			c-1.5-1.4-3.2-2.9-4.9-4.3c-1.8-1.4-3.6-2.8-5.6-4.2c-1.9-1.4-3.9-2.7-6-3.9c-2-1.2-4.2-2.3-6.3-3.4c-2.1-1-4.2-2-6.3-2.8
			c-2.1-0.8-4.1-1.5-6.1-2.2c-1.9-0.6-3.8-1.2-5.5-1.6c-3.4-0.9-6.4-1.3-8.4-1.6c-1-0.1-1.8-0.2-2.3-0.2c-0.2,0-0.4,0-0.5,0
			c0,0,0,0-0.1,0c0,0,0,0,0-0.1c0,0,0-0.1,0-0.2c0-0.1,0-0.2,0-0.3c0-0.6,0-1.1,0-1.4c0-0.5,0-0.7,0-0.7L24.8,443.7z"/>
	</g>
</g>
<g>
	<g>
		<path class="st1" d="M-99.6,563.9c0,0,0,0.3,0.1,0.9c0.1,0.6,0.2,1.6,0.4,2.9c0.4,2.5,1.2,6.1,2.4,10.4c0.6,2.1,1.4,4.4,2.3,6.8
			c0.9,2.4,1.9,4.9,3.2,7.4c0.6,1.3,1.2,2.5,1.9,3.8c0.7,1.3,1.4,2.6,2.1,3.8c0.7,1.3,1.5,2.5,2.3,3.8c0.8,1.3,1.6,2.5,2.5,3.7
			c1.7,2.5,3.5,4.8,5.4,7.1c0.9,1.1,1.9,2.2,2.8,3.3c1,1.1,2,2.1,2.9,3.2c2,2,3.9,3.9,5.8,5.7c0.5,0.4,0.9,0.9,1.4,1.3
			c0.5,0.4,1,0.8,1.4,1.2c0.9,0.8,1.8,1.6,2.7,2.3c1.8,1.4,3.4,2.7,4.9,3.8c1.5,1.1,2.8,2,3.9,2.7c2.2,1.5,3.5,2.3,3.5,2.3l-1.8,3.1
			c0,0-1.3-0.8-3.7-2.2c-1.2-0.7-2.5-1.6-4.1-2.6c-1.6-1-3.3-2.3-5.2-3.6c-1-0.7-1.9-1.5-2.9-2.2c-0.5-0.4-1-0.8-1.5-1.2
			c-0.5-0.4-1-0.8-1.5-1.3c-2.1-1.7-4.2-3.6-6.3-5.6c-1-1-2.1-2.1-3.2-3.2c-1-1.1-2.1-2.2-3.1-3.4c-2.1-2.3-4.1-4.7-6-7.2
			c-1-1.3-1.9-2.5-2.8-3.8c-0.9-1.3-1.8-2.6-2.6-3.9c-0.9-1.3-1.6-2.6-2.4-3.9c-0.7-1.3-1.5-2.6-2.2-3.9c-1.4-2.6-2.6-5.2-3.7-7.7
			c-1.1-2.5-2-4.9-2.8-7.2c-1.6-4.5-2.6-8.4-3.2-11.2c-0.3-1.4-0.5-2.5-0.6-3.3c-0.1-0.8-0.2-1.3-0.2-1.3L-99.6,563.9z"/>
	</g>
</g>
<g>
	<g>
		<path class="st1" d="M-97.5,503.3c0,0,0-0.1,0.1-0.3c0.1-0.2,0.2-0.5,0.3-0.9c0.3-0.7,0.7-1.8,1.3-3.1c1.2-2.6,3.1-6.1,5.6-10.2
			c1.3-2,2.7-4.2,4.3-6.4c1.6-2.2,3.4-4.5,5.4-6.7c1.9-2.3,4.1-4.5,6.3-6.7c2.3-2.2,4.6-4.3,7.1-6.3l1.8-1.5l1.9-1.4
			c1.2-1,2.5-1.9,3.8-2.7c1.3-0.9,2.6-1.7,3.9-2.5c1.3-0.8,2.6-1.5,3.9-2.3c1.3-0.8,2.6-1.4,3.8-2.1c1.3-0.7,2.5-1.3,3.7-1.8
			c2.4-1.2,4.8-2.1,7-3c1.1-0.4,2.2-0.8,3.2-1.1c0.5-0.2,1-0.4,1.5-0.5c0.5-0.1,1-0.3,1.4-0.4c1.8-0.5,3.4-1.1,4.7-1.4
			c2.7-0.7,4.2-1.1,4.2-1.1l0.8,3.2c0,0-1.5,0.4-4,1.2c-1.3,0.4-2.8,1-4.5,1.6c-0.4,0.2-0.9,0.3-1.3,0.5c-0.5,0.2-0.9,0.4-1.4,0.6
			c-1,0.4-2,0.8-3,1.2c-2.1,1-4.3,1.9-6.6,3.2c-1.2,0.6-2.3,1.2-3.5,1.9c-1.2,0.7-2.4,1.4-3.6,2.1c-1.2,0.8-2.4,1.5-3.6,2.4
			c-1.2,0.8-2.4,1.7-3.6,2.6c-1.2,0.9-2.4,1.8-3.5,2.8l-1.7,1.4l-1.7,1.5c-2.2,2-4.4,4.1-6.4,6.3c-2,2.2-3.9,4.4-5.6,6.6
			c-1.7,2.2-3.3,4.4-4.7,6.5c-1.4,2.1-2.7,4.2-3.8,6.2c-2.2,3.9-3.7,7.3-4.7,9.6c-0.5,1.2-0.8,2.1-1.1,2.7c-0.2,0.6-0.3,0.9-0.3,0.9
			L-97.5,503.3z"/>
	</g>
</g>
<g>
	<g>
		<path class="st1" d="M-1.1,648.2c0,0,0.3,0,0.8,0.1c0.5,0.1,1.3,0.1,2.3,0.2c2,0.2,4.9,0.3,8.4,0.4c3.5,0,7.5-0.1,11.9-0.5
			c2.2-0.2,4.4-0.5,6.7-0.8c2.3-0.3,4.5-0.8,6.8-1.3c1.1-0.3,2.3-0.5,3.4-0.8c1.1-0.3,2.2-0.6,3.3-0.9c2.2-0.6,4.3-1.4,6.4-2.2
			c2-0.8,4-1.6,5.8-2.5c0.9-0.4,1.8-0.9,2.6-1.3c0.8-0.4,1.6-0.9,2.4-1.4c1.5-0.9,2.8-1.8,4-2.6c1.1-0.8,2.1-1.6,2.9-2.2
			c1.6-1.3,2.5-2.1,2.5-2.1l1.6,1.6c0,0-0.9,0.9-2.4,2.3c-0.8,0.7-1.8,1.6-2.9,2.5c-1.2,0.9-2.5,2-4,3c-0.7,0.5-1.5,1.1-2.4,1.6
			c-0.8,0.5-1.7,1.1-2.6,1.6c-1.8,1.1-3.8,2.1-5.8,3.1c-2.1,1-4.2,1.9-6.5,2.8c-1.1,0.4-2.3,0.9-3.4,1.2c-1.1,0.4-2.3,0.8-3.5,1.1
			c-2.3,0.7-4.7,1.3-7.1,1.9c-2.3,0.5-4.7,1-6.9,1.4c-4.5,0.8-8.8,1.2-12.5,1.5c-3.7,0.3-6.7,0.3-8.9,0.3c-1.1,0-1.9,0-2.5-0.1
			c-0.6,0-0.9,0-0.9,0L-1.1,648.2z"/>
	</g>
</g>
<line class="st2" x1="37.3" y1="509.9" x2="67.1" y2="527.1"/>
<g>
	<g>
		<path class="st3" d="M44,509.9c0,3.7-3,6.7-6.7,6.7s-6.7-3-6.7-6.7s3-6.7,6.7-6.7C41,503.2,44,506.2,44,509.9"/>
	</g>
</g>
<g>
	<line class="st2" x1="67.1" y1="527.1" x2="96.8" y2="498.1"/>
</g>
<g>
	<g>
		<path class="st3" d="M73.7,527.1c0,3.7-3,6.7-6.7,6.7c-3.7,0-6.7-3-6.7-6.7s3-6.7,6.7-6.7C70.7,520.4,73.7,523.4,73.7,527.1"/>
	</g>
</g>
<g>
	<g>
		<path class="st3" d="M103.5,498.1c0,3.7-3,6.7-6.7,6.7s-6.7-3-6.7-6.7s3-6.7,6.7-6.7S103.5,494.4,103.5,498.1"/>
	</g>
</g>
<g>
	<g>
		<path class="st3" d="M-30.2,664.3c-6.3,0-12.6,0-18.8,0c-2.1,0-2.3-0.2-2-2.2c0.8-7.1,4.4-12.4,10.4-16.2c1-0.6,1.8-0.6,2.8,0.1
			c4.8,3.3,10.9,3.3,15.7,0c0.8-0.6,1.6-0.7,2.4-0.2c6.4,3.8,10,9.4,10.7,16.8c0.1,1.4-0.5,1.7-1.8,1.7
			C-17.4,664.3-23.8,664.3-30.2,664.3"/>
	</g>
</g>
<g>
	<g>
		<path class="st3" d="M-18.8,634.5c0,6.3-5.1,11.5-11.3,11.5c-6.4,0-11.6-5.2-11.6-11.4c0-6.4,5.2-11.6,11.5-11.6
			C-23.8,623-18.8,628.1-18.8,634.5"/>
	</g>
</g>
<g>
	<g>
		<path class="st3" d="M-121.1,527.6c0.8-1,1.8-1.5,2.7-2.2c5.8-4.4,11.7-8.7,17.6-13c1-0.8,1.9-0.9,2.9-0.1
			c6.2,4.8,12.4,9.5,18.6,14.2c0.4,0.3,1.1,0.5,0.9,1.1c-0.2,0.6-0.9,0.4-1.4,0.4c-13.4,0-26.7,0-40.1,0
			C-120.3,528.1-120.7,528.2-121.1,527.6 M-100,524.8c1.9,0,3.3-1.2,3.3-3c0-1.8-1.4-3-3.3-3c-1.9,0-3.2,1.3-3.2,3.1
			C-103.2,523.6-101.9,524.8-100,524.8"/>
	</g>
</g>
<g>
	<g>
		<rect x="-118.4" y="549.8" class="st3" width="37.2" height="5.1"/>
	</g>
</g>
<g>
	<g>
		<path class="st3" d="M-108.7,547.2h-5.3c-0.5,0-1-0.4-1-1v-14.8c0-0.5,0.4-1,1-1h5.3c0.5,0,1,0.4,1,1v14.8
			C-107.7,546.8-108.1,547.2-108.7,547.2"/>
	</g>
</g>
<g>
	<g>
		<path class="st3" d="M-96.8,547.2h-5.3c-0.5,0-1-0.4-1-1v-14.8c0-0.5,0.4-1,1-1h5.3c0.5,0,1,0.4,1,1v14.8
			C-95.8,546.8-96.2,547.2-96.8,547.2"/>
	</g>
</g>
<g>
	<g>
		<path class="st3" d="M-84.7,547.2h-5.3c-0.5,0-1-0.4-1-1v-14.8c0-0.5,0.4-1,1-1h5.3c0.5,0,1,0.4,1,1v14.8
			C-83.7,546.8-84.1,547.2-84.7,547.2"/>
	</g>
</g>
<g>
	<g>
		<path class="st3" d="M-1.6,460.6c-4.4,0-8.7,0-13.1,0c-1.4,0-1.6-0.1-1.4-1.5c0.6-4.9,3-8.6,7.2-11.2c0.7-0.4,1.2-0.4,1.9,0.1
			c3.3,2.3,7.6,2.3,10.9,0c0.6-0.4,1.1-0.5,1.7-0.1c4.5,2.6,6.9,6.5,7.4,11.6c0.1,1-0.4,1.2-1.2,1.2C7.4,460.6,2.9,460.6-1.6,460.6"
			/>
	</g>
</g>
<g>
	<path class="st4" d="M-1.5,417.7c0.6,0.1,1.2,0.2,1.7,0.4c5.5,1.7,11,3.4,16.5,5.1c0.9,0.3,2.1,0.4,2.1,1.7
		c0.1,1.5-1.2,1.6-2.2,1.9c-5.4,1.7-10.9,3.4-16.3,5.1c-1.1,0.3-2.2,0.5-3.4,0.1c-5.6-1.8-11.2-3.4-16.8-5.2
		c-0.9-0.3-2.1-0.3-2.1-1.7c0-1.4,1.2-1.6,2.2-2c5.5-1.7,11-3.4,16.6-5.1C-2.6,417.9-2.1,417.8-1.5,417.7"/>
</g>
<g>
	<g>
		<path class="st3" d="M10.6,434.1c-0.1,4.7-1.2,8.9-5.1,11.8c-6.7,5-15.8,1.9-18.4-6.2c-0.8-2.4-0.9-4.9-0.8-7.4
			c0-1.6,0.7-2.1,2.2-1.6c2.2,0.7,4.5,1.3,6.6,2.1c2.3,0.9,4.5,0.9,6.7,0c1.9-0.7,3.9-1.3,5.9-1.8c2.6-0.8,2.8-0.6,2.8,2.1
			C10.6,433.5,10.6,433.8,10.6,434.1"/>
	</g>
</g>
<g>
	<path class="st4" d="M17.4,440.1c0,1.7-1.1,2.3-2.6,2.3c-1.4,0-2.8-0.5-2.7-2.1c0.2-3.4,1.7-6.7,1.5-10.2c0-0.7,0.7-1.1,1.4-1.1
		c0.8,0,1,0.6,1,1.2C15.8,433.6,16.9,436.8,17.4,440.1"/>
</g>
<g>
	<rect x="28.9" y="526.3" class="st1" width="16.8" height="52.2"/>
	<rect x="58.6" y="543.5" class="st1" width="16.8" height="35"/>
	<rect x="88.4" y="511" class="st1" width="16.8" height="67.5"/>
	<polygon class="st1" points="170.6,521.5 149.5,521.5 149.5,578.5 132.6,578.5 132.6,521.5 112,521.5 112,508.5 170.6,508.5 	"/>
	<g>
		<g>
			<path class="st1" d="M164.6,540.3c0-1.3,0.5-2.4,1.4-3.3c1-0.8,2.2-1.3,3.7-1.3s2.8,0.4,3.7,1.3c1,0.9,1.4,1.9,1.4,3.3
				c0,1.3-0.5,2.4-1.4,3.3c-1,0.9-2.2,1.3-3.7,1.3s-2.8-0.4-3.7-1.3C165.1,542.7,164.6,541.6,164.6,540.3 M174.5,578h-9.4v-30h9.4
				V578z"/>
		</g>
	</g>
	<g>
		<g>
			<path class="st1" d="M197.2,578c-0.3-0.6-0.6-1.5-0.9-2.7c-1.7,2.2-4.1,3.2-7.2,3.2c-2.8,0-5.2-0.9-7.2-2.6c-2-1.7-3-3.9-3-6.4
				c0-3.2,1.2-5.7,3.6-7.4s5.9-2.5,10.5-2.5h2.9v-1.6c0-2.8-1.2-4.1-3.6-4.1c-2.2,0-3.3,1.1-3.3,3.3h-9.3c0-2.9,1.2-5.2,3.7-7.1
				c2.5-1.8,5.6-2.7,9.4-2.7c3.8,0,6.8,0.9,9.1,2.8c2.2,1.9,3.4,4.4,3.4,7.7v13.3c0,2.8,0.5,4.9,1.3,6.3v0.5L197.2,578L197.2,578z
				 M191.3,571.9c1.2,0,2.1-0.2,2.9-0.7c0.8-0.5,1.3-1.1,1.6-1.7v-4.8h-2.7c-3.3,0-4.9,1.5-4.9,4.4c0,0.8,0.3,1.5,0.9,2.1
				S190.4,571.9,191.3,571.9"/>
		</g>
	</g>
	<g>
		<g>
			<path class="st1" d="M219,548l0.3,3.5c2.1-2.7,4.9-4.1,8.6-4.1c3.1,0,5.5,0.9,7,2.8c1.5,1.9,2.3,4.7,2.4,8.4V578h-9.4v-18.9
				c0-1.5-0.3-2.6-0.9-3.3c-0.6-0.7-1.7-1.1-3.3-1.1c-1.8,0-3.2,0.7-4.1,2.2V578h-9.3v-30L219,548L219,548z"/>
		</g>
	</g>
	<g>
		<g>
			<path class="st1" d="M258.1,569.6c0-0.8-0.4-1.4-1.2-1.9c-0.8-0.5-2.4-1-4.7-1.5c-2.3-0.5-4.2-1.2-5.8-2
				c-1.5-0.8-2.7-1.9-3.5-3.1c-0.8-1.2-1.2-2.6-1.2-4.1c0-2.8,1.1-5,3.4-6.8c2.3-1.8,5.2-2.7,8.9-2.7c4,0,7.1,0.9,9.5,2.7
				c2.4,1.8,3.6,4.1,3.6,7.1h-9.4c0-2.4-1.3-3.6-3.8-3.6c-1,0-1.8,0.3-2.5,0.8c-0.7,0.5-1,1.2-1,2c0,0.8,0.4,1.5,1.2,2
				c0.8,0.5,2.1,0.9,3.9,1.3c1.8,0.3,3.3,0.7,4.7,1.2c4.5,1.6,6.8,4.3,6.8,8.3c0,2.7-1.2,5-3.6,6.7c-2.4,1.7-5.6,2.6-9.4,2.6
				c-2.6,0-4.9-0.5-6.9-1.4c-2-0.9-3.6-2.2-4.7-3.8s-1.7-3.3-1.7-5h8.7c0,1.4,0.5,2.4,1.4,3c0.9,0.6,2,1,3.4,1
				c1.3,0,2.2-0.3,2.9-0.8C257.7,571.1,258.1,570.4,258.1,569.6"/>
		</g>
	</g>
</g>
<g>
	<g class="st5">
		<path class="st4" d="M68.7,610.6h-1.6l-10.9-16.2v16.2h-1.6v-19h1.6l10.9,16.2v-16.2h1.6V610.6z"/>
	</g>
	<g class="st5">
		<path class="st4" d="M92,601.5h-8.9v7.7h10.2v1.4H81.5v-19h11.7v1.4H83.1v7.2H92V601.5z"/>
	</g>
	<g class="st5">
		<path class="st4" d="M117.8,593h-6.5v17.6h-1.6V593h-6.5v-1.4h14.6V593z"/>
	</g>
	<g class="st5">
		<path class="st4" d="M132.6,605.5l0.6,2.9l0.7-2.8l4.1-14h1.4l4.1,14l0.7,2.8l0.6-3l3.4-13.9h1.6l-4.9,19h-1.5l-4.3-14.8l-0.5-1.9
			l-0.5,1.9l-4.4,14.8h-1.5l-4.8-19h1.6L132.6,605.5z"/>
	</g>
	<path class="st4" d="M175,602.2c0,1.7-0.3,3.3-0.9,4.6c-0.6,1.3-1.5,2.3-2.6,3c-1.1,0.7-2.4,1.1-3.9,1.1c-2.2,0-4-0.8-5.4-2.4
		c-1.4-1.6-2-3.7-2-6.4v-2c0-1.7,0.3-3.3,0.9-4.6s1.5-2.4,2.6-3.1c1.1-0.7,2.4-1.1,3.9-1.1c1.5,0,2.7,0.4,3.9,1.1
		c1.1,0.7,2,1.7,2.6,3c0.6,1.3,0.9,2.8,1,4.5V602.2z M173.4,600.1c0-2.3-0.5-4.1-1.6-5.4c-1-1.3-2.4-1.9-4.2-1.9
		c-1.8,0-3.2,0.6-4.2,1.9c-1,1.3-1.6,3.1-1.6,5.4v2c0,2.3,0.5,4,1.6,5.3s2.5,2,4.2,2c1.8,0,3.2-0.6,4.2-1.9c1-1.3,1.5-3.1,1.5-5.4
		V600.1z"/>
	<path class="st4" d="M194.1,602.7h-5.5v7.9H187v-19h6.2c2,0,3.6,0.5,4.7,1.5c1.1,1,1.7,2.4,1.7,4.1c0,1.2-0.4,2.3-1.1,3.2
		c-0.7,0.9-1.7,1.6-2.9,1.9l4.7,8.1v0.2h-1.7L194.1,602.7z M188.6,601.4h4.9c1.3,0,2.4-0.4,3.2-1.1s1.2-1.8,1.2-3
		c0-1.3-0.4-2.4-1.3-3.1c-0.9-0.7-2-1.1-3.6-1.1h-4.5V601.4z"/>
	<g class="st5">
		<path class="st4" d="M216.3,601.2l-2.7,2.6v6.8H212v-19h1.6v10.2l9.7-10.2h2l-7.9,8.4l8.6,10.5h-2L216.3,601.2z"/>
	</g>
</g>
<g>
	<path class="st3" d="M90.5,634.6l-0.1,0.3c-0.6,1.4-0.8,2.4-0.9,3.2c0,0.2,0.1,0.4,0.2,0.6c-0.1,0-0.3,0.2-0.7,0.3
		c-0.2,0.1-0.3,0.1-0.5,0.1c-0.3,0-0.5-0.2-0.5-0.6c0-0.8,0.4-2,1.2-3.7l0.2-0.4l-0.3,0c-0.7,0-1.3,0.1-1.7,0.4
		c0.2-1,0.8-1.5,1.7-1.5l0.8,0l0.2-0.3c0.7-1.4,1.8-3.2,3.2-5.5c0.5-0.8,0.8-1.3,1.1-1.5s0.7-0.4,1.4-0.5c-0.1,1-0.2,2-0.2,2.9
		c0,2.4,0.2,4.8,0.6,7.3c0.2,1.4,0.6,2.2,1,2.6c-0.4,0.5-0.8,0.8-1.1,0.8c-0.7,0-1.2-1.6-1.6-4.7c-0.7,0.1-1.4,0.1-2.2,0.1
		L90.5,634.6z M91,633.6l1.3,0.1c0.9,0,1.6,0,2.1-0.1c-0.2-2-0.3-3.7-0.3-5.1l0-0.7c-0.1,0.2-0.5,0.8-1,1.6c-0.9,1.5-1.6,2.8-2,3.9
		L91,633.6z"/>
	<path class="st3" d="M105.6,635.9c1.6-4.4,3-6.5,4.2-6.5c1,0,1.4,1.3,1.4,3.9l0,1.1c0,1.2,0,2.1,0.1,2.5s0.3,0.7,0.5,0.7
		c0.4,0,0.8-0.4,1.3-1.2c0.5-0.8,1.3-2.4,2.4-4.8l0.5,0.4c-1,2.4-1.9,4.2-2.6,5.4c-0.8,1.2-1.5,1.7-2.1,1.7c-0.6,0-0.9-0.4-1.2-1.1
		c-0.2-0.7-0.3-2-0.3-3.7v-0.8c0-1,0-1.6-0.1-2c-0.1-0.4-0.2-0.6-0.5-0.6c-0.6,0-1.5,1.5-2.8,4.6c-0.3,0.7-0.5,1.2-0.6,1.4
		c-0.3,0.8-0.5,1.3-0.5,1.7c0,0.1,0,0.3,0.1,0.4c-0.3,0.1-0.5,0.2-0.6,0.2c-0.4,0-0.7-0.3-0.7-1c0-0.2,0.1-1,0.2-2.5l0.2-1.9
		c0.1-0.8,0.1-1.4,0.1-1.9c0-0.6-0.1-1.1-0.3-1.5c0.1,0,0.2-0.1,0.5-0.2c0.3-0.1,0.5-0.2,0.7-0.2c0.3,0,0.5,0.3,0.5,1
		c0,0.3,0,0.9-0.1,1.8c0,0.2,0,0.4,0,0.5L105.6,635.9z"/>
	<path class="st3" d="M115.6,635.5c0,1.7,0.5,2.6,1.6,2.6c0.9,0,2-0.6,3.1-1.8c1.1-1.2,2.2-2.7,3.1-4.7l0.6,0.4
		c-0.9,2.1-2,3.9-3.4,5.3c-1.4,1.4-2.7,2.1-3.9,2.1c-0.8,0-1.4-0.3-1.9-1s-0.7-1.6-0.7-2.8c0-1.7,0.4-3.1,1.3-4.3
		c0.8-1.2,1.8-1.8,3-1.8c0.6,0,1,0.2,1.3,0.6c0.3,0.4,0.5,0.9,0.5,1.5c0,1-0.5,2-1.4,2.8C117.9,635.1,116.8,635.5,115.6,635.5z
		 M115.6,634.6c0.9-0.1,1.7-0.4,2.4-1c0.7-0.6,1-1.4,1-2.2c0-0.7-0.2-1.1-0.7-1.1c-0.6,0-1.1,0.4-1.7,1.3
		C116.1,632.4,115.8,633.4,115.6,634.6z"/>
	<path class="st3" d="M124,639.4c0.1-0.5,0.2-1,0.2-1.3c0-1.4-0.2-3-0.6-4.8c-0.4-1.7-1-3.1-1.6-4c0.4-0.3,0.7-0.4,1-0.4
		c0.5,0,1,0.8,1.4,2.5c0.5,1.7,0.8,3.7,1,6.1c0.8-1.3,1.4-2.6,1.9-4c0.5-1.4,0.8-2.6,0.9-3.5c0.7,0.4,1,0.8,1,1.2
		c0,0.4-0.3,1.3-1,2.7c-0.6,1.4-1.3,2.7-2.1,3.9c-0.4,0.6-0.7,1-0.9,1.2S124.5,639.4,124,639.4z"/>
	<path class="st3" d="M131,635.6c0,1.7,0.5,2.6,1.6,2.6c0.9,0,2-0.6,3.1-1.8s2.2-2.7,3.1-4.7l0.6,0.4c-0.9,2.1-2,3.9-3.4,5.3
		c-1.4,1.4-2.7,2.1-3.9,2.1c-0.8,0-1.4-0.3-1.9-1s-0.7-1.6-0.7-2.8c0-1.7,0.4-3.1,1.3-4.3c0.8-1.2,1.8-1.8,3-1.8
		c0.6,0,1,0.2,1.3,0.6c0.3,0.4,0.5,0.9,0.5,1.5c0,1-0.5,2-1.4,2.8C133.3,635.2,132.2,635.6,131,635.6z M131.1,634.8
		c0.9-0.1,1.7-0.4,2.4-1c0.7-0.6,1-1.4,1-2.2c0-0.7-0.2-1.1-0.7-1.1c-0.6,0-1.1,0.4-1.7,1.3C131.5,632.5,131.2,633.6,131.1,634.8z"
		/>
	<path class="st3" d="M139.1,639.3c-0.3,0.2-0.5,0.3-0.7,0.3c-0.4,0-0.7-0.3-0.7-0.8c0-0.3,0.1-0.9,0.3-2l0.3-2.2
		c0.2-1.3,0.3-2.2,0.3-2.9c0-0.3-0.1-0.6-0.2-0.8c0.5-0.2,0.8-0.3,1.1-0.3c0.3,0,0.5,0.3,0.5,0.8c0,0.3-0.1,1.2-0.3,2.5l-0.4,2.5
		c0.8-2.1,1.7-3.8,2.5-5c0.8-1.2,1.6-1.8,2.3-1.8c0.2,0,0.4,0.1,0.6,0.3s0.3,0.4,0.3,0.7c0,0.4-0.3,0.9-1,1.6
		c-0.2-0.5-0.4-0.7-0.7-0.7c-0.6,0-1.3,0.8-2.1,2.3c-0.5,1-1,2-1.4,3c-0.4,1-0.6,1.8-0.6,2.2L139.1,639.3z"/>
	<path class="st3" d="M146.3,634.8c0.3-1,0.7-1.5,1.2-1.5c0.1,0,0.2,0,0.3,0l0.7,0.1c0.1,0,0.3,0,0.4,0c0.3,0,0.6-0.1,0.8-0.4
		c-0.1,1.1-0.5,1.7-0.9,1.7c-0.1,0-0.2,0-0.4,0l-0.5-0.1c-0.3-0.1-0.6-0.1-0.8-0.1C146.9,634.6,146.6,634.7,146.3,634.8z"/>
	<path class="st3" d="M152.6,635.8c0,1.7,0.5,2.6,1.6,2.6c0.9,0,2-0.6,3.1-1.8c1.1-1.2,2.2-2.7,3.1-4.7l0.6,0.4
		c-0.9,2.1-2,3.9-3.4,5.3c-1.4,1.4-2.7,2.1-3.9,2.1c-0.8,0-1.4-0.3-1.9-1s-0.7-1.6-0.7-2.8c0-1.7,0.4-3.1,1.3-4.3
		c0.8-1.2,1.8-1.8,3-1.8c0.6,0,1,0.2,1.3,0.6c0.3,0.4,0.5,0.9,0.5,1.5c0,1-0.5,2-1.4,2.8C154.9,635.4,153.8,635.8,152.6,635.8z
		 M152.6,635c0.9-0.1,1.7-0.4,2.4-1c0.7-0.6,1-1.4,1-2.2c0-0.7-0.2-1.1-0.7-1.1c-0.6,0-1.1,0.4-1.7,1.3
		C153.1,632.7,152.8,633.8,152.6,635z"/>
	<path class="st3" d="M161.3,636.4c1.6-4.4,3-6.5,4.2-6.5c1,0,1.4,1.3,1.4,3.9l0,1.1c0,1.2,0,2.1,0.1,2.5s0.3,0.7,0.5,0.7
		c0.4,0,0.8-0.4,1.3-1.2s1.3-2.4,2.4-4.8l0.5,0.4c-1,2.4-1.9,4.2-2.6,5.4s-1.5,1.7-2.1,1.7c-0.6,0-0.9-0.4-1.2-1.1s-0.3-2-0.3-3.7
		l0-0.8c0-1,0-1.6-0.1-2c-0.1-0.4-0.2-0.6-0.5-0.6c-0.6,0-1.5,1.5-2.8,4.6c-0.3,0.7-0.5,1.2-0.6,1.4c-0.3,0.8-0.5,1.3-0.5,1.7
		c0,0.1,0,0.3,0.1,0.4c-0.3,0.1-0.5,0.2-0.6,0.2c-0.4,0-0.7-0.3-0.7-1c0-0.2,0.1-1,0.2-2.5l0.2-1.9c0.1-0.8,0.1-1.4,0.1-1.9
		c0-0.6-0.1-1.1-0.3-1.5c0.1,0,0.2-0.1,0.5-0.2c0.3-0.1,0.5-0.2,0.7-0.2c0.3,0,0.5,0.3,0.5,1c0,0.3,0,0.9-0.1,1.8c0,0.2,0,0.4,0,0.5
		L161.3,636.4z"/>
	<path class="st3" d="M175.5,634.5c-0.7,1.6-1.4,2.9-2.2,3.9c-0.8,1-1.4,1.4-2,1.4c-0.5,0-0.8-0.3-1.1-0.8s-0.4-1.3-0.4-2.2
		c0-1.8,0.4-3.5,1.3-4.8c0.8-1.4,1.8-2.1,2.9-2.1c0.7,0,1.4,0.3,2.1,0.8l0.7-4.7c-0.4,0.1-0.7,0.2-1,0.1c-0.4,0-0.7-0.1-0.8-0.4
		c-0.2-0.2-0.3-0.7-0.4-1.4c0.3,0.3,0.8,0.4,1.4,0.4c0.8,0,1.6-0.2,2.3-0.6l-1.5,9.6c-0.2,1.1-0.3,2-0.3,2.7c0,1,0.2,1.5,0.6,1.5
		c0.4,0,1.1-0.6,2.1-1.9c1-1.3,1.8-2.7,2.5-4.1l0.5,0.5c-0.8,1.9-1.8,3.6-3,5.1c-1.2,1.5-2.1,2.2-2.8,2.2c-0.9,0-1.3-1-1.3-2.8
		C175.3,636.2,175.3,635.4,175.5,634.5z M175.8,632.2c-0.9-0.8-1.7-1.2-2.3-1.2c-0.7,0-1.2,0.5-1.7,1.6c-0.5,1.1-0.7,2.3-0.8,3.8
		c0,1.2,0.3,1.8,0.9,1.8c0.6,0,1.8-1.8,3.6-5.5C175.6,632.6,175.7,632.5,175.8,632.2z"/>
	<path class="st3" d="M188.3,632.6c-1,2.3-2,4.1-3,5.4s-1.9,1.9-2.7,1.9c-0.5,0-0.9-0.2-1.2-0.6c-0.3-0.4-0.4-1-0.4-1.7
		c0-0.3,0-0.7,0.1-1.2l0.2-1c0.2-1.4,0.3-2.4,0.3-2.9c0-0.3-0.1-0.6-0.2-0.8c0.6-0.2,0.9-0.3,1.1-0.3c0.3,0,0.5,0.3,0.5,0.9
		c0,0.4-0.1,1.1-0.2,1.9l-0.3,1.7c-0.1,0.8-0.2,1.4-0.2,1.6c0,0.7,0.2,1.1,0.7,1.1c0.5,0,1.3-0.6,2.2-1.8c0.9-1.2,1.8-2.8,2.7-4.6
		L188.3,632.6z M182.5,628.1L182.5,628.1c0.4,0,0.8-0.2,1.4-0.6c0.6-0.4,1-0.8,1.3-1.1c-0.2,0.8-0.5,1.5-1,2
		c-0.7,0.8-1.3,1.2-1.5,1.2c-0.2,0-0.3-0.1-0.3-0.4C182.3,628.8,182.4,628.5,182.5,628.1z"/>
	<path class="st3" d="M188.6,636.6c1.6-4.4,3-6.5,4.2-6.5c1,0,1.4,1.3,1.4,3.9l0,1.1c0,1.2,0,2.1,0.1,2.5s0.3,0.7,0.5,0.7
		c0.4,0,0.8-0.4,1.3-1.2c0.5-0.8,1.3-2.4,2.4-4.8l0.5,0.4c-1,2.4-1.9,4.2-2.6,5.4c-0.8,1.2-1.5,1.7-2.1,1.7c-0.6,0-0.9-0.4-1.2-1.1
		s-0.3-2-0.3-3.7l0-0.8c0-1,0-1.6-0.1-2s-0.2-0.6-0.5-0.6c-0.6,0-1.5,1.5-2.8,4.6c-0.3,0.7-0.5,1.2-0.6,1.4
		c-0.3,0.8-0.5,1.3-0.5,1.7c0,0.1,0,0.3,0.1,0.4c-0.3,0.1-0.5,0.2-0.6,0.2c-0.4,0-0.7-0.3-0.7-1c0-0.2,0.1-1,0.2-2.5l0.2-1.9
		c0.1-0.8,0.1-1.4,0.1-1.9c0-0.6-0.1-1.1-0.3-1.5c0.1,0,0.2-0.1,0.5-0.2c0.3-0.1,0.5-0.2,0.7-0.2c0.3,0,0.5,0.3,0.5,1
		c0,0.3,0,1-0.1,1.8c0,0.2,0,0.4,0,0.5L188.6,636.6z"/>
	<path class="st3" d="M202.6,634.6c-0.4,1.2-1.1,2.2-1.9,3.1c-0.8,0.9-1.5,1.3-2.2,1.3c-0.5,0-0.9-0.2-1.2-0.7s-0.4-1-0.4-1.7
		c0-1.6,0.5-3.1,1.4-4.4s1.9-2,3-2c0.6,0,1.2,0.2,1.8,0.7c0.1-0.6,0.2-0.9,0.4-1.1c0.2-0.1,0.6-0.3,1.3-0.3c-0.3,0.9-0.7,3.1-1,6.5
		l-0.1,0.9c1.9-1.5,3.3-3,4.4-4.6l0.5,0.5c-1,1.7-2.6,3.5-5,5.4c0,0.2,0,0.4,0,0.5c-0.1,1.5-0.2,2.5-0.4,3.2s-0.5,1.3-0.9,2
		c-0.9,1.2-1.9,1.8-3.1,1.8c-0.7,0-1.2-0.2-1.6-0.6c-0.4-0.4-0.6-0.9-0.6-1.6c0-0.6,0.2-1.2,0.5-1.7c0.4-0.5,1-1.1,2-1.7
		c0.6-0.4,1.6-1.1,2.7-2L202.6,634.6z M203,632.3c-0.6-0.8-1.2-1.2-1.9-1.2c-0.6,0-1.3,0.5-1.8,1.6c-0.6,1.1-0.9,2.2-0.9,3.4
		c0,0.9,0.2,1.3,0.7,1.3c0.5,0,1.1-0.5,1.9-1.5C201.7,634.9,202.4,633.7,203,632.3z M202.3,639.2c-0.3,0.2-0.8,0.6-1.5,1.2
		c-1.5,1.1-2.3,2.1-2.3,3c0,0.4,0.1,0.7,0.4,1c0.2,0.3,0.6,0.4,0.9,0.4C201.4,644.7,202.3,642.9,202.3,639.2z"/>
	<path class="st3" d="M220.9,632.9c-1.1,2.4-2.2,4.2-3.4,5.6c-1.2,1.3-2.3,2-3.3,2c-0.8,0-1.5-0.4-2-1.2s-0.8-1.8-0.8-3
		c0-1.6,0.5-3,1.4-4.2c0.9-1.2,2-1.8,3.2-1.8c0.5,0,0.9,0.1,1.2,0.4c0.3,0.3,0.5,0.6,0.5,1c0,0.6-0.4,1.1-1.2,1.4
		c0-0.1,0.1-0.3,0.1-0.4c0-0.9-0.4-1.4-1.1-1.4c-0.7,0-1.3,0.5-1.8,1.4c-0.6,1-0.8,2-0.8,3.2c0,0.9,0.2,1.7,0.5,2.3
		c0.4,0.6,0.8,0.9,1.4,0.9c1.6,0,3.5-2.2,5.7-6.6L220.9,632.9z"/>
	<path class="st3" d="M226.1,633.6c0,0.1,0,0.3,0,0.4c0,1.7-0.5,3.1-1.3,4.4s-1.9,1.9-3,1.9c-0.9,0-1.6-0.4-2.1-1.1
		s-0.8-1.7-0.8-2.9c0-1.4,0.4-2.5,1.1-3.5c0.7-1,1.6-1.5,2.5-1.5c0.1,0,0.3,0,0.5,0.1c-0.1-0.3-0.2-0.5-0.2-0.7
		c0-0.3,0.1-0.5,0.2-0.8c1.1,0.1,1.9,0.9,2.6,2.2c0.7,0.7,1.5,1,2.3,1c0.5,0,1.1-0.2,1.7-0.7l0.3,0.7c-0.7,0.6-1.4,1-2.1,1
		C227.2,634,226.7,633.9,226.1,633.6z M224.6,632.9c-0.4-0.1-0.7-0.4-1-0.7c-0.2-0.1-0.4-0.1-0.6-0.1c-0.7,0-1.4,0.4-2,1.3
		c-0.6,0.9-0.9,1.9-0.9,3c0,0.8,0.2,1.5,0.5,2c0.3,0.5,0.8,0.8,1.3,0.8c0.7,0,1.4-0.5,1.9-1.5c0.5-1,0.8-2.2,0.8-3.5
		C224.7,633.8,224.7,633.3,224.6,632.9z"/>
	<path class="st3" d="M230.2,637c1.6-4.4,3-6.5,4.2-6.5c1,0,1.4,1.3,1.4,3.9l0,1.1c0,1.2,0,2.1,0.1,2.5c0.1,0.5,0.3,0.7,0.5,0.7
		c0.4,0,0.8-0.4,1.3-1.2c0.5-0.8,1.3-2.4,2.4-4.8l0.5,0.4c-1,2.4-1.9,4.2-2.6,5.4c-0.8,1.2-1.5,1.7-2.1,1.7c-0.6,0-0.9-0.4-1.2-1.1
		s-0.3-2-0.3-3.7v-0.8c0-1,0-1.6-0.1-2c-0.1-0.4-0.2-0.6-0.5-0.6c-0.6,0-1.5,1.5-2.8,4.6c-0.3,0.7-0.5,1.2-0.6,1.4
		c-0.3,0.8-0.5,1.3-0.5,1.7c0,0.1,0,0.3,0.1,0.4c-0.3,0.1-0.5,0.2-0.6,0.2c-0.4,0-0.7-0.3-0.7-1c0-0.2,0.1-1,0.2-2.5l0.2-1.9
		c0.1-0.8,0.1-1.4,0.1-1.9c0-0.6-0.1-1.1-0.3-1.5c0.1,0,0.2-0.1,0.5-0.2c0.3-0.1,0.5-0.2,0.7-0.2c0.3,0,0.5,0.3,0.5,1
		c0,0.3,0,0.9-0.1,1.8c0,0.2,0,0.4,0,0.5L230.2,637z"/>
	<path class="st3" d="M241,637.1c1.6-4.4,3-6.5,4.2-6.5c1,0,1.4,1.3,1.4,3.9l0,1.1c0,1.2,0,2.1,0.1,2.5s0.3,0.7,0.5,0.7
		c0.4,0,0.8-0.4,1.3-1.2s1.3-2.4,2.4-4.8l0.5,0.4c-1,2.4-1.9,4.2-2.6,5.4c-0.8,1.2-1.5,1.7-2.1,1.7c-0.6,0-0.9-0.4-1.2-1.1
		c-0.2-0.7-0.3-2-0.3-3.7v-0.8c0-1,0-1.6-0.1-2c-0.1-0.4-0.2-0.6-0.5-0.6c-0.6,0-1.5,1.5-2.8,4.6c-0.3,0.7-0.5,1.2-0.6,1.4
		c-0.3,0.8-0.5,1.3-0.5,1.7c0,0.1,0,0.3,0.1,0.4c-0.3,0.1-0.5,0.2-0.6,0.2c-0.4,0-0.7-0.3-0.7-1c0-0.2,0.1-1,0.2-2.5l0.2-1.9
		c0.1-0.8,0.1-1.4,0.1-1.9c0-0.6-0.1-1.1-0.3-1.5c0.1,0,0.2-0.1,0.5-0.2c0.3-0.1,0.5-0.2,0.6-0.2c0.3,0,0.5,0.3,0.5,1
		c0,0.3,0,0.9-0.1,1.8c0,0.2,0,0.4,0,0.5L241,637.1z"/>
	<path class="st3" d="M251,636.6c0,1.7,0.5,2.6,1.6,2.6c0.9,0,2-0.6,3.1-1.8s2.2-2.7,3.1-4.7l0.6,0.4c-0.9,2.1-2,3.9-3.4,5.3
		c-1.4,1.4-2.7,2.1-3.9,2.1c-0.8,0-1.4-0.3-1.9-1s-0.7-1.6-0.7-2.8c0-1.7,0.4-3.1,1.3-4.3c0.8-1.2,1.8-1.8,3-1.8
		c0.6,0,1,0.2,1.3,0.6c0.3,0.4,0.5,0.9,0.5,1.5c0,1-0.5,2-1.4,2.8C253.3,636.3,252.2,636.6,251,636.6z M251,635.8
		c0.9-0.1,1.7-0.4,2.4-1c0.7-0.6,1-1.4,1-2.2c0-0.7-0.2-1.1-0.7-1.1c-0.6,0-1.1,0.4-1.7,1.3C251.5,633.6,251.2,634.6,251,635.8z"/>
	<path class="st3" d="M267,633.3c-1.1,2.4-2.2,4.2-3.4,5.6c-1.2,1.3-2.3,2-3.3,2c-0.8,0-1.5-0.4-2-1.2c-0.5-0.8-0.8-1.8-0.8-3
		c0-1.6,0.5-3,1.4-4.2c0.9-1.2,2-1.8,3.2-1.8c0.5,0,0.9,0.1,1.2,0.4c0.3,0.3,0.5,0.6,0.5,1c0,0.6-0.4,1.1-1.2,1.4
		c0-0.1,0.1-0.3,0.1-0.4c0-0.9-0.4-1.4-1.1-1.4c-0.7,0-1.3,0.5-1.8,1.4c-0.6,1-0.8,2-0.8,3.2c0,0.9,0.2,1.7,0.5,2.3
		c0.4,0.6,0.8,0.9,1.4,0.9c1.6,0,3.5-2.2,5.7-6.6L267,633.3z"/>
	<path class="st3" d="M270.1,637c0.1,0.3,0.2,0.5,0.2,0.8c0,0.6-0.4,1.2-1.1,1.9s-1.4,1-2,1c-0.5,0-0.9-0.3-1.3-0.9
		c-0.3-0.6-0.5-1.4-0.5-2.4c0-1.1,0.2-2.7,0.7-4.7l0.3-1.5l-1.1,0c-0.5,0-0.8,0.1-1.1,0.3c0.3-0.6,0.5-1,0.6-1.1
		c0.2-0.2,0.4-0.2,0.8-0.2l1,0l0.1-0.6c0.2-0.9,0.5-1.5,0.7-1.8c0.3-0.3,0.7-0.5,1.3-0.5c0.1,0,0.2,0,0.3,0
		c-0.3,0.6-0.7,1.6-1.1,2.9l3.5,0c0.6,0,1.1-0.1,1.4-0.3c-0.1,0.6-0.3,1-0.4,1.2c-0.2,0.2-0.5,0.3-1,0.3l-3.7,0
		c0,0.2-0.1,0.3-0.1,0.4c-0.5,2.4-0.8,4.2-0.8,5.4c0,1.4,0.3,2,1.1,2c0.4,0,0.8-0.2,1.2-0.6C269.6,638,269.9,637.5,270.1,637z"/>
	<path class="st3" d="M278.8,633.4c-1,2.3-2,4.1-3,5.4s-1.9,1.9-2.7,1.9c-0.5,0-0.9-0.2-1.2-0.6c-0.3-0.4-0.4-1-0.4-1.7
		c0-0.3,0-0.7,0.1-1.2l0.2-1c0.2-1.4,0.3-2.4,0.3-2.9c0-0.3-0.1-0.6-0.2-0.8c0.6-0.2,0.9-0.3,1.1-0.3c0.3,0,0.5,0.3,0.5,0.9
		c0,0.4-0.1,1.1-0.2,1.9l-0.3,1.7c-0.1,0.8-0.2,1.4-0.2,1.6c0,0.7,0.2,1.1,0.7,1.1c0.5,0,1.3-0.6,2.2-1.8c0.9-1.2,1.8-2.8,2.7-4.6
		L278.8,633.4z M273.1,628.9L273.1,628.9c0.4,0,0.8-0.2,1.4-0.6c0.6-0.4,1-0.8,1.3-1.1c-0.2,0.8-0.5,1.5-1,2
		c-0.7,0.8-1.3,1.2-1.5,1.2c-0.2,0-0.3-0.1-0.3-0.4C272.9,629.6,273,629.2,273.1,628.9z"/>
	<path class="st3" d="M284,634.1c0,0.1,0,0.3,0,0.4c0,1.7-0.5,3.1-1.3,4.4c-0.9,1.2-1.9,1.9-3,1.9c-0.9,0-1.6-0.4-2.1-1.1
		c-0.5-0.8-0.8-1.7-0.8-2.9c0-1.4,0.4-2.5,1.1-3.5c0.7-1,1.6-1.5,2.5-1.5c0.1,0,0.3,0,0.5,0.1c-0.1-0.3-0.2-0.5-0.2-0.7
		c0-0.3,0.1-0.5,0.2-0.8c1.1,0.1,1.9,0.9,2.6,2.2c0.7,0.7,1.5,1,2.3,1c0.5,0,1.1-0.2,1.7-0.7l0.3,0.7c-0.7,0.6-1.4,1-2.1,1
		C285.2,634.5,284.7,634.4,284,634.1z M282.6,633.4c-0.4-0.1-0.7-0.4-1-0.7c-0.2-0.1-0.4-0.1-0.6-0.1c-0.7,0-1.4,0.4-2,1.3
		c-0.6,0.9-0.9,1.9-0.9,3c0,0.8,0.2,1.5,0.5,2c0.3,0.5,0.8,0.8,1.3,0.8c0.7,0,1.4-0.5,1.9-1.5c0.5-1,0.8-2.2,0.8-3.5
		C282.7,634.3,282.7,633.8,282.6,633.4z"/>
	<path class="st3" d="M288.2,637.5c1.6-4.4,3-6.5,4.2-6.5c1,0,1.4,1.3,1.4,3.9l0,1.1c0,1.2,0,2.1,0.1,2.5c0.1,0.5,0.3,0.7,0.5,0.7
		c0.4,0,0.8-0.4,1.3-1.2c0.5-0.8,1.3-2.4,2.4-4.8l0.5,0.4c-1,2.4-1.9,4.2-2.6,5.4s-1.5,1.7-2.1,1.7c-0.6,0-0.9-0.4-1.2-1.1
		s-0.3-2-0.3-3.7v-0.8c0-1,0-1.6-0.1-2c-0.1-0.4-0.2-0.6-0.5-0.6c-0.6,0-1.5,1.5-2.8,4.6c-0.3,0.7-0.5,1.2-0.6,1.4
		c-0.3,0.8-0.5,1.3-0.5,1.7c0,0.1,0,0.3,0.1,0.4c-0.3,0.1-0.5,0.2-0.6,0.2c-0.4,0-0.7-0.3-0.7-1c0-0.2,0.1-1,0.2-2.5l0.2-1.9
		c0.1-0.8,0.1-1.4,0.1-1.9c0-0.6-0.1-1.1-0.3-1.5c0.1,0,0.2-0.1,0.5-0.2c0.3-0.1,0.5-0.2,0.6-0.2c0.3,0,0.5,0.3,0.5,1
		c0,0.3,0,0.9-0.1,1.8c0,0.2,0,0.4,0,0.5L288.2,637.5z"/>
	<path class="st3" d="M297.1,638.6l0.5-0.1c0.3-0.1,0.5-0.1,0.7-0.1c0.4,0,0.6,0.3,0.6,0.8c0,0.2,0,0.5-0.1,0.8l-0.1,0.6l-0.3,0.1
		c-0.4,0.1-0.7,0.2-0.8,0.2c-0.3,0-0.5-0.2-0.5-0.7c0-0.1,0-0.2,0-0.3l0-0.2c0-0.1,0-0.2,0-0.3C297.3,638.9,297.2,638.7,297.1,638.6
		z"/>
	<path class="st3" d="M301.6,638.6l0.5-0.1c0.3-0.1,0.5-0.1,0.7-0.1c0.4,0,0.6,0.3,0.6,0.8c0,0.2,0,0.5-0.1,0.8l-0.1,0.6l-0.3,0.1
		c-0.4,0.1-0.7,0.2-0.8,0.2c-0.3,0-0.5-0.2-0.5-0.7c0-0.1,0-0.2,0-0.3l0-0.2c0-0.1,0-0.2,0-0.3C301.7,639,301.6,638.8,301.6,638.6z"
		/>
	<path class="st3" d="M306,638.6l0.5-0.1c0.3-0.1,0.5-0.1,0.7-0.1c0.4,0,0.6,0.3,0.6,0.8c0,0.2,0,0.5-0.1,0.8l-0.1,0.6l-0.3,0.1
		c-0.4,0.1-0.7,0.2-0.8,0.2c-0.3,0-0.5-0.2-0.5-0.7c0-0.1,0-0.2,0-0.3l0-0.2c0-0.1,0-0.2,0-0.3C306.1,639,306.1,638.8,306,638.6z"/>
</g>
</svg>
