<?xml version="1.0" encoding="UTF-8" standalone="no"?>
<!DOCTYPE svg PUBLIC "-//W3C//DTD SVG 1.1//EN" "http://www.w3.org/Graphics/SVG/1.1/DTD/svg11.dtd">
<svg version="1.1" xmlns="http://www.w3.org/2000/svg" xmlns:xlink="http://www.w3.org/1999/xlink" preserveAspectRatio="xMidYMid meet" viewBox="-1 131.8506787330317 644 378.2986425339366" width="640" height="374.3"><defs><path d="M640 132.85C640 132.85 640 132.85 640 132.85C640 357.43 640 482.2 640 507.15C640 507.15 640 507.15 640 507.15C256 507.15 42.67 507.15 0 507.15C0 507.15 0 507.15 0 507.15C0 282.57 0 157.8 0 132.85C0 132.85 0 132.85 0 132.85C384 132.85 597.33 132.85 640 132.85Z" id="cdORvGFXx"></path><path d="M223.13 174.84C223.13 174.41 223.28 173.68 223.28 172.81C223.28 172.67 223.28 172.52 223.28 172.38C223.28 172.24 223.28 172.09 223.28 172.09C223.28 171.95 223.28 171.95 223.28 171.95C223.28 171.95 223.42 171.95 223.42 171.95C223.71 171.95 224 171.95 224.58 172.09C225.45 172.24 226.9 172.24 228.49 172.52C231.82 172.96 236.45 173.83 241.95 175.28C244.71 176 247.6 176.87 250.64 177.88C253.68 179.04 256.87 180.2 260.05 181.65C263.24 183.1 266.57 184.69 269.76 186.43C271.35 187.29 272.94 188.16 274.53 189.18C276.13 190.19 277.72 191.2 279.31 192.22C282.35 194.24 285.39 196.56 288.29 198.88C291.19 201.19 293.79 203.66 296.25 206.12C298.71 208.58 301.18 210.9 303.2 213.36C305.38 215.67 307.11 218.14 308.85 220.31C310.44 222.62 312.04 224.51 313.19 226.53C314.35 228.42 315.51 230.01 316.24 231.46C317.83 234.21 318.7 235.8 318.7 235.8C318.38 236.02 315.83 237.76 315.51 237.97C315.51 237.97 314.35 236.52 312.47 234.21C311.46 233.05 310.15 231.6 308.85 230.01C307.55 228.27 305.67 226.68 303.93 224.65C302.05 222.77 300.16 220.74 297.85 218.71C295.67 216.69 293.21 214.52 290.75 212.49C288.14 210.46 285.54 208.43 282.64 206.41C279.89 204.38 277 202.5 273.95 200.76C271.06 199.02 267.87 197.43 264.83 195.84C261.79 194.39 258.75 192.94 255.71 191.78C252.67 190.62 249.77 189.61 246.88 188.6C244.13 187.73 241.38 186.86 238.91 186.28C233.99 184.98 229.65 184.4 226.75 183.96C225.3 183.82 224.14 183.67 223.42 183.67C223.13 183.67 222.84 183.67 222.7 183.67C222.7 183.67 222.7 183.67 222.55 183.67C222.55 183.67 222.55 183.67 222.55 183.53C222.55 183.53 222.55 183.38 222.55 183.24C222.55 183.1 222.55 182.95 222.55 182.81C222.55 181.94 222.55 181.21 222.55 180.78C222.55 180.05 222.55 179.76 222.55 179.76C222.59 179.5 222.78 178.2 223.13 175.86C223.13 175.66 223.13 175.32 223.13 174.84Z" id="h5n00NGBI"></path><path d="M43.15 351.2C43.29 352.07 43.44 353.52 43.73 355.4C44.31 359.02 45.47 364.24 47.2 370.46C48.07 373.5 49.23 376.83 50.53 380.31C51.84 383.78 53.29 387.4 55.17 391.02C56.04 392.9 56.9 394.64 57.92 396.52C58.93 398.41 59.95 400.29 60.96 402.03C61.97 403.91 63.13 405.65 64.29 407.53C65.45 409.41 66.61 411.15 67.91 412.89C70.37 416.51 72.98 419.84 75.73 423.17C77.03 424.76 78.48 426.35 79.78 427.95C81.23 429.54 82.68 430.99 83.98 432.58C86.88 435.48 89.63 438.23 92.38 440.83C93.1 441.41 93.68 442.14 94.41 442.71C95.13 443.29 95.86 443.87 96.43 444.45C97.74 445.61 99.04 446.77 100.34 447.78C102.95 449.81 105.27 451.69 107.44 453.29C109.61 454.88 111.49 456.18 113.09 457.19C116.27 459.37 118.15 460.52 118.15 460.52C117.89 460.97 115.81 464.56 115.55 465.01C115.55 465.01 113.67 463.86 110.19 461.83C108.45 460.81 106.57 459.51 104.25 458.06C101.94 456.62 99.48 454.73 96.72 452.85C95.28 451.84 93.97 450.68 92.52 449.67C91.8 449.09 91.08 448.51 90.35 447.93C89.63 447.35 88.9 446.77 88.18 446.05C85.14 443.58 82.1 440.83 79.06 437.94C77.61 436.49 76.02 434.9 74.43 433.3C72.98 431.71 71.38 430.12 69.94 428.38C66.9 425.05 64 421.57 61.25 417.95C59.8 416.07 58.5 414.33 57.19 412.45C55.89 410.57 54.59 408.69 53.43 406.81C52.13 404.92 51.11 403.04 49.95 401.16C48.94 399.28 47.78 397.39 46.77 395.51C44.74 391.75 43 387.98 41.41 384.36C39.82 380.74 38.52 377.27 37.36 373.94C35.04 367.42 33.59 361.77 32.72 357.72C32.29 355.69 32 354.1 31.86 352.94C31.71 351.78 31.57 351.06 31.57 351.06C32.33 350.98 36.14 350.6 43 349.9C43 350.19 43.05 350.62 43.15 351.2Z" id="dQEeehT9t"></path><path d="M46.19 261.72C46.33 261.43 46.48 261 46.62 260.42C47.06 259.4 47.64 257.81 48.51 255.93C50.24 252.16 53 247.1 56.62 241.16C58.5 238.26 60.52 235.08 62.84 231.89C65.16 228.71 67.76 225.38 70.66 222.19C73.41 218.86 76.6 215.67 79.78 212.49C83.11 209.3 86.44 206.26 90.06 203.37C90.24 203.22 91.11 202.5 92.67 201.19C94.32 199.98 95.24 199.3 95.42 199.17C97.16 197.72 99.04 196.42 100.92 195.26C102.81 193.95 104.69 192.8 106.57 191.64C108.45 190.48 110.33 189.47 112.22 188.31C114.1 187.15 115.98 186.28 117.72 185.27C119.6 184.25 121.34 183.38 123.08 182.66C126.55 180.92 130.03 179.62 133.21 178.32C134.81 177.74 136.4 177.16 137.85 176.72C138.57 176.43 139.29 176.14 140.02 176C140.74 175.86 141.47 175.57 142.05 175.42C144.65 174.7 146.97 173.83 148.85 173.39C152.76 172.38 154.93 171.8 154.93 171.8C155.05 172.26 155.97 175.97 156.09 176.43C156.09 176.43 153.92 177.01 150.3 178.17C148.42 178.75 146.24 179.62 143.78 180.49C143.2 180.78 142.48 180.92 141.9 181.21C141.18 181.5 140.6 181.79 139.87 182.08C138.43 182.66 136.98 183.24 135.53 183.82C132.49 185.27 129.3 186.57 125.97 188.45C124.24 189.32 122.64 190.19 120.9 191.2C119.17 192.22 117.43 193.23 115.69 194.24C113.95 195.4 112.22 196.42 110.48 197.72C108.74 198.88 107 200.18 105.27 201.48C103.53 202.79 101.79 204.09 100.2 205.54C100.03 205.67 99.21 206.35 97.74 207.57C96.26 208.87 95.44 209.59 95.28 209.74C92.09 212.63 88.9 215.67 86.01 218.86C83.11 222.05 80.36 225.23 77.9 228.42C75.44 231.6 73.12 234.79 71.1 237.83C69.07 240.87 67.19 243.91 65.59 246.81C62.41 252.45 60.24 257.38 58.79 260.71C58.06 262.44 57.63 263.75 57.19 264.62C56.9 265.48 56.76 265.92 56.76 265.92C56.05 265.67 52.47 264.41 46.05 262.15C46.05 262.06 46.09 261.91 46.19 261.72Z" id="d1JEfU8rp"></path><path d="M186.79 472.11C187.51 472.25 188.67 472.25 190.12 472.4C193.01 472.69 197.21 472.83 202.28 472.98C207.35 472.98 213.14 472.83 219.51 472.25C222.7 471.96 225.88 471.53 229.21 471.1C232.54 470.66 235.73 469.94 239.06 469.21C240.65 468.78 242.39 468.49 243.98 468.05C245.57 467.62 247.17 467.19 248.76 466.75C251.95 465.88 254.99 464.72 258.03 463.57C260.92 462.41 263.82 461.25 266.43 459.95C267.73 459.37 269.03 458.64 270.19 458.06C271.35 457.48 272.51 456.76 273.67 456.04C275.84 454.73 277.72 453.43 279.46 452.27C281.05 451.11 282.5 449.95 283.66 449.09C285.97 447.2 287.28 446.05 287.28 446.05C287.51 446.28 289.36 448.13 289.59 448.36C289.59 448.36 288.29 449.67 286.12 451.69C284.96 452.71 283.51 454.01 281.92 455.31C280.18 456.62 278.3 458.21 276.13 459.66C275.11 460.38 273.95 461.25 272.65 461.97C271.49 462.7 270.19 463.57 268.89 464.29C266.28 465.88 263.38 467.33 260.49 468.78C257.45 470.23 254.41 471.53 251.08 472.83C249.48 473.41 247.75 474.14 246.15 474.57C244.56 475.15 242.82 475.73 241.09 476.16C237.76 477.18 234.28 478.05 230.81 478.91C227.48 479.64 224 480.36 220.81 480.94C214.3 482.1 208.07 482.68 202.71 483.11C197.36 483.55 193.01 483.55 189.83 483.55C188.24 483.55 187.08 483.55 186.21 483.4C185.34 483.4 184.9 483.4 184.9 483.4C184.95 482.64 185.19 478.83 185.63 471.96C185.92 471.96 186.3 472.01 186.79 472.11Z" id="a17p7DFbAr"></path><path d="M241.23 271.71L284.38 296.62" id="d4SCGIQYC"></path><path d="M250.93 271.71C250.93 277.07 246.59 281.41 241.23 281.41C235.87 281.41 231.53 277.07 231.53 271.71C231.53 266.35 235.87 262.01 241.23 262.01C246.59 262.01 250.93 266.35 250.93 271.71" id="e1hxmoJP7S"></path><path d="M284.38 296.62L327.38 254.62" id="eSUfY5zQe"></path><path d="M293.94 296.62C293.94 301.97 289.59 306.32 284.24 306.32C278.88 306.32 274.53 301.97 274.53 296.62C274.53 291.26 278.88 286.91 284.24 286.91C289.59 286.91 293.94 291.26 293.94 296.62" id="daZsPvyJM"></path><path d="M337.09 254.62C337.09 259.98 332.74 264.33 327.38 264.33C322.03 264.33 317.68 259.98 317.68 254.62C317.68 249.27 322.03 244.92 327.38 244.92C332.74 244.92 337.09 249.27 337.09 254.62" id="b45FAi2tcc"></path><path d="M143.49 495.28C134.37 495.28 125.25 495.28 116.27 495.28C113.23 495.28 112.94 494.99 113.38 492.09C114.53 481.81 119.75 474.14 128.43 468.63C129.88 467.76 131.04 467.76 132.49 468.78C139.44 473.56 148.27 473.56 155.22 468.78C156.38 467.91 157.54 467.76 158.7 468.49C167.96 473.99 173.18 482.1 174.19 492.81C174.33 494.84 173.47 495.28 171.58 495.28C162.03 495.28 152.76 495.28 143.49 495.28" id="d4tDx2walw"></path><path d="M160 452.13C160 461.25 152.62 468.78 143.64 468.78C134.37 468.78 126.84 461.25 126.84 452.27C126.84 443 134.37 435.48 143.49 435.48C152.76 435.48 160 442.86 160 452.13" id="b2od4rRzk5"></path><path d="M11.87 297.34C13.03 295.89 14.48 295.17 15.78 294.15C24.18 287.78 32.72 281.56 41.27 275.33C42.71 274.17 44.02 274.03 45.47 275.19C54.44 282.14 63.42 288.94 72.4 295.75C72.98 296.18 73.99 296.47 73.7 297.34C73.41 298.21 72.4 297.92 71.67 297.92C52.27 297.92 33.01 297.92 13.61 297.92C13.03 298.06 12.45 298.21 11.87 297.34M42.43 293.29C45.18 293.29 47.2 291.55 47.2 288.94C47.2 286.33 45.18 284.6 42.43 284.6C39.67 284.6 37.79 286.48 37.79 289.09C37.79 291.55 39.67 293.29 42.43 293.29" id="ac73DaGaP"></path><path d="M69.65 329.48C69.65 329.48 69.65 329.48 69.65 329.48C69.65 333.91 69.65 336.38 69.65 336.87C69.65 336.87 69.65 336.87 69.65 336.87C37.33 336.87 19.37 336.87 15.78 336.87C15.78 336.87 15.78 336.87 15.78 336.87C15.78 332.44 15.78 329.98 15.78 329.48C15.78 329.48 15.78 329.48 15.78 329.48C48.1 329.48 66.06 329.48 69.65 329.48Z" id="b3BqpsDnn"></path><path d="M29.83 325.72C25.22 325.72 22.67 325.72 22.15 325.72C21.43 325.72 20.71 325.14 20.71 324.27C20.71 322.13 20.71 304.98 20.71 302.84C20.71 302.12 21.29 301.39 22.15 301.39C22.92 301.39 29.06 301.39 29.83 301.39C30.55 301.39 31.28 301.97 31.28 302.84C31.28 304.98 31.28 322.13 31.28 324.27C31.28 325.14 30.7 325.72 29.83 325.72" id="a2vM9YzRR"></path><path d="M47.06 325.72C42.45 325.72 39.9 325.72 39.38 325.72C38.66 325.72 37.94 325.14 37.94 324.27C37.94 322.13 37.94 304.98 37.94 302.84C37.94 302.12 38.52 301.39 39.38 301.39C40.15 301.39 46.29 301.39 47.06 301.39C47.78 301.39 48.51 301.97 48.51 302.84C48.51 304.98 48.51 322.13 48.51 324.27C48.51 325.14 47.93 325.72 47.06 325.72" id="a3BeiX1zwg"></path><path d="M64.58 325.72C59.97 325.72 57.42 325.72 56.9 325.72C56.18 325.72 55.46 325.14 55.46 324.27C55.46 322.13 55.46 304.98 55.46 302.84C55.46 302.12 56.04 301.39 56.9 301.39C57.67 301.39 63.81 301.39 64.58 301.39C65.3 301.39 66.03 301.97 66.03 302.84C66.03 304.98 66.03 322.13 66.03 324.27C66.03 325.14 65.45 325.72 64.58 325.72" id="b7HMAQcHd"></path><path d="M184.9 200.33C178.53 200.33 172.31 200.33 165.94 200.33C163.91 200.33 163.62 200.18 163.91 198.15C164.78 191.06 168.25 185.7 174.33 181.94C175.35 181.36 176.07 181.36 177.09 182.08C181.86 185.41 188.09 185.41 192.87 182.08C193.74 181.5 194.46 181.36 195.33 181.94C201.85 185.7 205.32 191.35 206.05 198.73C206.19 200.18 205.47 200.47 204.31 200.47C197.94 200.33 191.42 200.33 184.9 200.33" id="b2QfmrJEbF"></path><path d="M185.05 138.21C185.92 138.35 186.79 138.5 187.51 138.79C195.48 141.25 203.44 143.71 211.4 146.17C212.71 146.61 214.44 146.75 214.44 148.63C214.59 150.81 212.71 150.95 211.26 151.38C203.44 153.85 195.48 156.31 187.66 158.77C186.06 159.2 184.47 159.49 182.73 158.91C174.62 156.31 166.52 153.99 158.41 151.38C157.1 150.95 155.37 150.95 155.37 148.92C155.37 146.9 157.1 146.61 158.55 146.03C166.52 143.57 174.48 141.1 182.59 138.64C183.46 138.5 184.18 138.35 185.05 138.21" id="b4LXPlJbb"></path><path d="M202.57 161.95C202.43 168.76 200.83 174.84 195.19 179.04C185.48 186.28 172.31 181.79 168.54 170.06C167.38 166.59 167.24 162.97 167.38 159.35C167.38 157.03 168.4 156.31 170.57 157.03C173.76 158.05 177.09 158.91 180.13 160.07C183.46 161.38 186.64 161.38 189.83 160.07C192.58 159.06 195.48 158.19 198.37 157.47C202.14 156.31 202.43 156.6 202.43 160.51C202.57 161.09 202.57 161.52 202.57 161.95" id="c1eWc7BrQN"></path><path d="M212.42 170.64C212.42 173.1 210.82 173.97 208.65 173.97C206.62 173.97 204.6 173.25 204.74 170.93C205.03 166.01 207.2 161.23 206.91 156.16C206.91 155.15 207.93 154.57 208.94 154.57C210.1 154.57 210.39 155.44 210.39 156.31C210.1 161.23 211.69 165.86 212.42 170.64" id="c6pHEx5NH"></path><path d="M253.39 295.46C253.39 295.46 253.39 295.46 253.39 295.46C253.39 340.81 253.39 366 253.39 371.04C253.39 371.04 253.39 371.04 253.39 371.04C238.8 371.04 230.69 371.04 229.07 371.04C229.07 371.04 229.07 371.04 229.07 371.04C229.07 325.69 229.07 300.5 229.07 295.46C229.07 295.46 229.07 295.46 229.07 295.46C243.66 295.46 251.77 295.46 253.39 295.46Z" id="fzSq8d32V"></path><path d="M296.4 320.36C296.4 320.36 296.4 320.36 296.4 320.36C296.4 350.77 296.4 367.66 296.4 371.04C296.4 371.04 296.4 371.04 296.4 371.04C281.8 371.04 273.69 371.04 272.07 371.04C272.07 371.04 272.07 371.04 272.07 371.04C272.07 340.63 272.07 323.74 272.07 320.36C272.07 320.36 272.07 320.36 272.07 320.36C286.67 320.36 294.78 320.36 296.4 320.36Z" id="b3vZCnYzg5"></path><path d="M339.55 273.3C339.55 273.3 339.55 273.3 339.55 273.3C339.55 331.95 339.55 364.52 339.55 371.04C339.55 371.04 339.55 371.04 339.55 371.04C324.95 371.04 316.84 371.04 315.22 371.04C315.22 371.04 315.22 371.04 315.22 371.04C315.22 312.4 315.22 279.82 315.22 273.3C315.22 273.3 315.22 273.3 315.22 273.3C329.82 273.3 337.93 273.3 339.55 273.3Z" id="b2CggG5ic4"></path><path d="M403.69 288.51L403.69 371.04L379.22 371.04L379.22 288.51L349.39 288.51L349.39 269.68L434.24 269.68L434.24 288.51L403.69 288.51Z" id="eGLnhJfM1"></path><path d="M425.56 315.73C425.56 313.85 426.28 312.25 427.58 310.95C429.03 309.79 430.77 309.07 432.94 309.07C435.11 309.07 437 309.65 438.3 310.95C439.75 312.25 440.33 313.7 440.33 315.73C440.33 317.61 439.6 319.2 438.3 320.51C436.85 321.81 435.11 322.39 432.94 322.39C430.77 322.39 428.89 321.81 427.58 320.51C426.28 319.2 425.56 317.61 425.56 315.73M426.28 370.32L426.28 326.88L439.89 326.88L439.89 370.32L426.28 370.32Z" id="aas8IGjgN"></path><path d="M471.46 366.41C469 369.59 465.52 371.04 461.03 371.04C456.98 371.04 453.5 369.74 450.61 367.28C447.71 364.81 446.26 361.63 446.26 358.01C446.26 353.38 448 349.76 451.48 347.29C454.95 344.83 460.02 343.67 466.68 343.67C466.96 343.67 468.36 343.67 470.88 343.67C470.88 342.28 470.88 341.51 470.88 341.36C470.88 337.3 469.14 335.42 465.67 335.42C462.48 335.42 460.89 337.01 460.89 340.2C459.54 340.2 448.77 340.2 447.42 340.2C447.42 336 449.16 332.67 452.78 329.92C456.4 327.31 460.89 326.01 466.39 326.01C471.89 326.01 476.24 327.31 479.57 330.06C482.75 332.81 484.49 336.43 484.49 341.21C484.49 343.14 484.49 358.54 484.49 360.47C484.49 364.52 485.21 367.57 486.37 369.59C486.37 369.64 486.37 369.88 486.37 370.32L472.76 370.32L472.76 370.32C472.18 368.87 471.75 367.57 471.46 366.41ZM464.22 361.48C465.95 361.48 467.26 361.19 468.42 360.47C469.57 359.75 470.3 358.88 470.73 358.01C470.73 357.55 470.73 355.23 470.73 351.06C468.39 351.06 467.08 351.06 466.82 351.06C462.05 351.06 459.73 353.23 459.73 357.43C459.73 358.59 460.16 359.6 461.03 360.47C461.9 361.34 462.91 361.48 464.22 361.48" id="cyt4KSEiP"></path><path d="M504.76 331.95C507.8 328.04 511.86 326.01 517.21 326.01C521.7 326.01 525.18 327.31 527.35 330.06C529.52 332.81 530.68 336.87 530.82 342.23C530.82 344.1 530.82 353.46 530.82 370.32L517.21 370.32C517.21 353.9 517.21 344.77 517.21 342.95C517.21 340.78 516.78 339.19 515.91 338.17C515.04 337.16 513.45 336.58 511.13 336.58C508.52 336.58 506.5 337.59 505.19 339.76C505.19 341.8 505.19 351.99 505.19 370.32L491.73 370.32L491.73 326.88L504.33 326.88L504.33 326.88C504.59 329.92 504.73 331.61 504.76 331.95Z" id="cs3wjcPqr"></path><path d="M560.94 358.15C560.94 357 560.36 356.13 559.2 355.4C558.05 354.68 555.73 353.95 552.4 353.23C549.07 352.51 546.32 351.49 544 350.33C541.83 349.18 540.09 347.58 538.93 345.85C537.77 344.11 537.19 342.08 537.19 339.91C537.19 335.86 538.79 332.67 542.12 330.06C545.45 327.46 549.65 326.15 555 326.15C560.8 326.15 565.29 327.46 568.76 330.06C572.24 332.67 573.97 336 573.97 340.34C572.61 340.34 561.72 340.34 560.36 340.34C560.36 336.87 558.48 335.13 554.86 335.13C553.41 335.13 552.25 335.57 551.24 336.29C550.23 337.01 549.79 338.03 549.79 339.19C549.79 340.34 550.37 341.36 551.53 342.08C552.69 342.81 554.57 343.38 557.18 343.96C559.78 344.4 561.95 344.98 563.98 345.7C570.5 348.02 573.83 351.93 573.83 357.72C573.83 361.63 572.09 364.96 568.62 367.42C565.14 369.88 560.51 371.19 555 371.19C551.24 371.19 547.91 370.46 545.01 369.16C542.12 367.86 539.8 365.97 538.21 363.66C536.62 361.34 535.75 358.88 535.75 356.42C537.01 356.42 547.08 356.42 548.34 356.42C548.34 358.44 549.07 359.89 550.37 360.76C551.67 361.63 553.27 362.21 555.29 362.21C557.18 362.21 558.48 361.77 559.49 361.05C560.36 360.33 560.94 359.31 560.94 358.15" id="b14WWjAeto"></path><path d="M284.38 417.52L268.6 394.06L268.6 417.52L266.28 417.52L266.28 390.01L268.6 390.01L284.38 413.47L284.38 390.01L286.7 390.01L286.7 417.52L284.38 417.52Z" id="b5csqgHOS"></path><path d="M307.55 404.34L307.55 415.49L322.32 415.49L322.32 417.52L305.23 417.52L305.23 390.01L322.17 390.01L322.17 392.04L307.55 392.04L307.55 402.46L320.43 402.46L320.43 404.34L307.55 404.34Z" id="ajsgSD8CD"></path><path d="M348.38 392.04L348.38 417.52L346.06 417.52L346.06 392.04L336.65 392.04L336.65 390.01L357.79 390.01L357.79 392.04L348.38 392.04Z" id="b3LXZTEaxi"></path><path d="M380.09 414.33L381.1 410.28L387.04 390.01L389.07 390.01L395 410.28L396.02 414.33L396.89 409.99L401.81 389.86L404.13 389.86L397.03 417.38L394.86 417.38L388.63 395.95L387.91 393.19L387.19 395.95L380.81 417.38L378.64 417.38L371.69 389.86L374.01 389.86L379.22 410.14L380.09 414.33Z" id="b1e81YPZMO"></path><path d="M440.62 405.36C440.62 407.82 440.18 410.14 439.31 412.02C438.44 413.9 437.14 415.35 435.55 416.36C433.95 417.38 432.07 417.95 429.9 417.95C426.71 417.95 424.11 416.8 422.08 414.48C420.05 412.16 419.19 409.12 419.19 405.21C419.19 404.92 419.19 402.61 419.19 402.32C419.19 399.86 419.62 397.54 420.49 395.66C421.36 393.77 422.66 392.18 424.25 391.17C425.85 390.15 427.73 389.57 429.9 389.57C432.07 389.57 433.81 390.15 435.55 391.17C437.14 392.18 438.44 393.63 439.31 395.51C440.18 397.39 440.62 399.57 440.76 402.03C440.76 402.25 440.76 403.36 440.76 405.36C440.68 405.36 440.63 405.36 440.62 405.36ZM438.3 402.32C438.3 398.99 437.57 396.38 435.98 394.5C434.53 392.62 432.51 391.75 429.9 391.75C427.29 391.75 425.27 392.62 423.82 394.5C422.37 396.38 421.5 398.99 421.5 402.32C421.5 402.61 421.5 404.92 421.5 405.21C421.5 408.54 422.23 411 423.82 412.89C425.41 414.77 427.44 415.78 429.9 415.78C432.51 415.78 434.53 414.91 435.98 413.03C437.43 411.15 438.15 408.54 438.15 405.21C438.15 405.02 438.15 404.05 438.15 402.32C438.23 402.32 438.28 402.32 438.3 402.32Z" id="a1kIw9VOS"></path><path d="M460.31 406.08L460.31 417.52L457.99 417.52L457.99 390.01C463.38 390.01 466.37 390.01 466.97 390.01C469.86 390.01 472.18 390.73 473.77 392.18C475.37 393.63 476.24 395.66 476.24 398.12C476.24 399.86 475.66 401.45 474.64 402.75C473.63 404.05 472.18 405.07 470.44 405.5C470.9 406.28 473.17 410.19 477.25 417.23L477.25 417.52L474.79 417.52L468.27 406.08L460.31 406.08ZM460.31 404.2C464.56 404.2 466.93 404.2 467.4 404.2C469.29 404.2 470.88 403.62 472.04 402.61C473.19 401.59 473.77 400 473.77 398.26C473.77 396.38 473.19 394.79 471.89 393.77C470.59 392.76 469 392.18 466.68 392.18C466.24 392.18 464.07 392.18 460.16 392.18L460.16 404.2L460.31 404.2Z" id="b6FNmX7Gi"></path><path d="M496.51 407.67L496.51 417.52L494.19 417.52L494.19 390.01L496.51 390.01L496.51 404.78L510.55 390.01L513.45 390.01L502.01 402.17L514.46 417.38L511.57 417.38L500.42 403.91L496.51 407.67Z" id="g1W0lacL"></path><path d="M318.12 452.71C317.25 454.73 316.96 456.18 316.81 457.34C316.81 457.63 316.96 457.92 317.1 458.21C316.96 458.21 316.67 458.5 316.09 458.64C315.8 458.79 315.66 458.79 315.37 458.79C314.93 458.79 314.64 458.5 314.64 457.92C314.64 456.76 315.22 455.02 316.38 452.56C316.4 452.52 316.5 452.33 316.67 451.98C316.41 451.98 316.26 451.98 316.24 451.98C315.22 451.98 314.35 452.13 313.77 452.56C314.06 451.11 314.93 450.39 316.24 450.39C316.31 450.39 316.7 450.39 317.39 450.39C317.57 450.13 317.66 449.98 317.68 449.95C318.7 447.93 320.29 445.32 322.32 441.99C323.04 440.83 323.48 440.11 323.91 439.82C324.34 439.53 324.92 439.24 325.94 439.1C325.79 440.54 325.65 441.99 325.65 443.29C325.65 446.77 325.94 450.24 326.52 453.86C326.81 455.89 327.38 457.05 327.96 457.63C327.38 458.35 326.81 458.79 326.37 458.79C325.36 458.79 324.63 456.47 324.05 451.98C323.04 452.13 322.03 452.13 320.87 452.13C320.7 452.14 319.83 452.18 318.26 452.27C318.18 452.53 318.13 452.68 318.12 452.71ZM320.87 450.97C322.17 450.97 323.19 450.97 323.91 450.82C323.62 447.93 323.48 445.47 323.48 443.44C323.48 443.34 323.48 442.53 323.48 442.43C323.33 442.71 322.75 443.58 322.03 444.74C320.72 446.91 319.71 448.8 319.13 450.39C319.12 450.42 319.07 450.56 318.99 450.82C320.12 450.91 320.74 450.96 320.87 450.97Z" id="hbhI79DaZ"></path><path d="M346.21 444.74C347.66 444.74 348.24 446.62 348.24 450.39C348.24 450.55 348.24 451.82 348.24 451.98C348.24 453.72 348.24 455.02 348.38 455.6C348.52 456.18 348.81 456.62 349.1 456.62C349.68 456.62 350.26 456.04 350.99 454.88C351.71 453.72 352.87 451.4 354.46 447.93C354.53 447.99 355.11 448.45 355.19 448.51C353.74 451.98 352.43 454.59 351.42 456.33C350.26 458.06 349.25 458.79 348.38 458.79C347.51 458.79 347.08 458.21 346.64 457.19C346.35 456.18 346.21 454.3 346.21 451.84C346.21 451.72 346.21 450.79 346.21 450.68C346.21 449.23 346.21 448.36 346.06 447.78C345.92 447.2 345.77 446.91 345.34 446.91C344.47 446.91 343.17 449.09 341.29 453.57C340.85 454.59 340.56 455.31 340.42 455.6C339.98 456.76 339.69 457.48 339.69 458.06C339.69 458.21 339.69 458.5 339.84 458.64C339.4 458.79 339.11 458.93 338.97 458.93C338.39 458.93 337.95 458.5 337.95 457.48C337.95 457.19 338.1 456.04 338.24 453.86C338.27 453.59 338.5 451.39 338.53 451.11C338.68 449.95 338.68 449.09 338.68 448.36C338.68 447.49 338.53 446.77 338.24 446.19C338.39 446.19 338.53 446.05 338.97 445.9C339.4 445.76 339.69 445.61 339.98 445.61C340.42 445.61 340.71 446.05 340.71 447.06C340.71 447.49 340.71 448.36 340.56 449.67C340.56 449.95 340.56 450.24 340.56 450.39C340.53 450.64 340.39 451.9 340.13 454.15C343.02 447.88 345.05 444.74 346.21 444.74Z" id="e4TokCnGPb"></path><path d="M356.92 457.34C358.23 457.34 359.82 456.47 361.41 454.73C363 453 364.6 450.82 365.9 447.93C365.99 447.99 366.68 448.45 366.77 448.51C365.47 451.55 363.87 454.15 361.85 456.18C359.82 458.21 357.94 459.22 356.2 459.22C355.04 459.22 354.17 458.79 353.45 457.77C352.72 456.76 352.43 455.46 352.43 453.72C352.43 451.26 353.01 449.23 354.32 447.49C355.48 445.76 356.92 444.89 358.66 444.89C359.53 444.89 360.11 445.18 360.54 445.76C360.98 446.33 361.27 447.06 361.27 447.93C361.27 449.38 360.54 450.82 359.24 451.98C357.94 453 356.34 453.57 354.61 453.57C354.61 456.04 355.33 457.34 356.92 457.34ZM358.08 450.82C359.1 449.95 359.53 448.8 359.53 447.64C359.53 446.62 359.24 446.05 358.52 446.05C357.65 446.05 356.92 446.62 356.05 447.93C355.33 449.09 354.9 450.53 354.61 452.27C355.91 452.13 357.07 451.69 358.08 450.82Z" id="a6XV5ulXi"></path><path d="M367.06 457.34C367.06 455.31 366.77 453 366.19 450.39C365.61 447.93 364.74 445.9 363.87 444.6C364.45 444.16 364.89 444.02 365.32 444.02C366.05 444.02 366.77 445.18 367.35 447.64C368.07 450.1 368.51 453 368.8 456.47C369.95 454.59 370.82 452.71 371.55 450.68C372.27 448.65 372.71 446.91 372.85 445.61C373.86 446.19 374.3 446.77 374.3 447.35C374.3 447.93 373.86 449.23 372.85 451.26C371.98 453.29 370.97 455.17 369.81 456.9C369.23 457.77 368.8 458.35 368.51 458.64C368.22 458.93 367.49 459.22 366.77 459.22C366.91 458.5 367.06 457.77 367.06 457.34Z" id="c9HePaKA3s"></path><path d="M379.22 457.48C380.52 457.48 382.12 456.62 383.71 454.88C385.3 453.14 386.9 450.97 388.2 448.07C388.29 448.13 388.98 448.59 389.07 448.65C387.76 451.69 386.17 454.3 384.14 456.33C382.12 458.35 380.24 459.37 378.5 459.37C377.34 459.37 376.47 458.93 375.75 457.92C375.02 456.9 374.73 455.6 374.73 453.86C374.73 451.4 375.31 449.38 376.62 447.64C377.77 445.9 379.22 445.03 380.96 445.03C381.83 445.03 382.41 445.32 382.84 445.9C383.28 446.48 383.57 447.2 383.57 448.07C383.57 449.52 382.84 450.97 381.54 452.13C380.24 453.14 378.64 453.72 376.9 453.72C376.9 456.18 377.63 457.48 379.22 457.48ZM380.52 451.11C381.54 450.24 381.97 449.09 381.97 447.93C381.97 446.91 381.68 446.33 380.96 446.33C380.09 446.33 379.37 446.91 378.5 448.22C377.63 449.23 377.19 450.82 377.05 452.56C378.35 452.42 379.51 451.98 380.52 451.11Z" id="cOT9N8IUR"></path><path d="M387.62 459.51C387.04 459.51 386.61 459.08 386.61 458.35C386.61 457.92 386.75 457.05 387.04 455.46C387.08 455.14 387.43 452.59 387.48 452.27C387.76 450.39 387.91 449.09 387.91 448.07C387.91 447.64 387.76 447.2 387.62 446.91C388.34 446.62 388.78 446.48 389.21 446.48C389.65 446.48 389.94 446.91 389.94 447.64C389.94 448.07 389.79 449.38 389.5 451.26C389.44 451.62 388.98 454.52 388.92 454.88C390.08 451.84 391.38 449.38 392.54 447.64C393.7 445.9 394.86 445.03 395.87 445.03C396.16 445.03 396.45 445.18 396.74 445.47C397.03 445.76 397.18 446.05 397.18 446.48C397.18 447.06 396.74 447.78 395.73 448.8C395.44 448.07 395.15 447.78 394.71 447.78C393.85 447.78 392.83 448.94 391.67 451.11C390.95 452.56 390.23 454.01 389.65 455.46C389.07 456.9 388.78 458.06 388.78 458.64C388.77 458.67 388.72 458.82 388.63 459.08C388.15 459.37 387.81 459.51 387.62 459.51Z" id="aMb7TknD"></path><path d="M400.8 450.39C400.94 450.39 401.09 450.39 401.23 450.39C401.33 450.4 402.14 450.52 402.24 450.53C402.39 450.53 402.68 450.53 402.82 450.53C403.26 450.53 403.69 450.39 403.98 449.95C403.84 451.55 403.26 452.42 402.68 452.42C402.53 452.42 402.39 452.42 402.1 452.42C402.03 452.4 401.45 452.29 401.38 452.27C400.94 452.13 400.51 452.13 400.22 452.13C399.93 452.27 399.49 452.42 399.06 452.56C399.49 451.11 400.07 450.39 400.8 450.39Z" id="b1bbinnUfz"></path><path d="M410.5 457.77C411.8 457.77 413.39 456.9 414.99 455.17C416.58 453.43 418.17 451.26 419.48 448.36C419.56 448.42 420.26 448.88 420.34 448.94C419.04 451.98 417.45 454.59 415.42 456.62C413.39 458.64 411.51 459.66 409.77 459.66C408.62 459.66 407.75 459.22 407.02 458.21C406.3 457.19 406.01 455.89 406.01 454.15C406.01 451.69 406.59 449.67 407.89 447.93C409.05 446.19 410.5 445.32 412.24 445.32C413.1 445.32 413.68 445.61 414.12 446.19C414.55 446.77 414.84 447.49 414.84 448.36C414.84 449.81 414.12 451.26 412.81 452.42C411.51 453.43 409.92 454.01 408.18 454.01C408.18 456.47 408.9 457.77 410.5 457.77ZM411.66 451.4C412.67 450.53 413.1 449.38 413.1 448.22C413.1 447.2 412.81 446.62 412.09 446.62C411.22 446.62 410.5 447.2 409.63 448.51C408.9 449.52 408.47 451.11 408.18 452.85C409.48 452.71 410.64 452.27 411.66 451.4Z" id="aNMfa5Yvt"></path><path d="M426.86 445.47C428.31 445.47 428.89 447.35 428.89 451.11C428.89 451.27 428.89 452.55 428.89 452.71C428.89 454.44 428.89 455.75 429.03 456.33C429.18 456.9 429.47 457.34 429.76 457.34C430.33 457.34 430.91 456.76 431.64 455.6C432.36 454.44 433.52 452.13 435.11 448.65C435.19 448.71 435.76 449.17 435.84 449.23C434.39 452.71 433.09 455.31 432.07 457.05C431.06 458.79 429.9 459.51 429.03 459.51C428.16 459.51 427.73 458.93 427.29 457.92C426.86 456.9 426.86 455.02 426.86 452.56C426.86 452.45 426.86 451.52 426.86 451.4C426.86 449.95 426.86 449.09 426.71 448.51C426.57 447.93 426.43 447.64 425.99 447.64C425.12 447.64 423.82 449.81 421.94 454.3C421.5 455.31 421.21 456.04 421.07 456.33C420.63 457.48 420.34 458.21 420.34 458.79C420.34 458.93 420.34 459.22 420.49 459.37C420.05 459.51 419.76 459.66 419.62 459.66C419.04 459.66 418.61 459.22 418.61 458.21C418.61 457.92 418.75 456.76 418.9 454.59C418.92 454.31 419.16 452.11 419.19 451.84C419.33 450.68 419.33 449.81 419.33 449.09C419.33 448.22 419.19 447.49 418.9 446.91C419.04 446.91 419.19 446.77 419.62 446.62C420.05 446.48 420.34 446.33 420.63 446.33C421.07 446.33 421.36 446.77 421.36 447.78C421.36 448.22 421.36 449.09 421.21 450.39C421.21 450.68 421.21 450.97 421.21 451.11C421.18 451.36 421.04 452.62 420.78 454.88C423.67 448.6 425.7 445.47 426.86 445.47Z" id="a6lIkrILmF"></path><path d="M438.15 457.77C437 459.22 436.13 459.8 435.26 459.8C434.53 459.8 434.1 459.37 433.67 458.64C433.23 457.92 433.09 456.76 433.09 455.46C433.09 452.85 433.67 450.39 434.97 448.51C436.13 446.48 437.57 445.47 439.17 445.47C440.18 445.47 441.19 445.9 442.21 446.62C442.31 445.94 443.12 440.5 443.22 439.82C442.64 439.96 442.21 440.11 441.77 439.96C441.19 439.96 440.76 439.82 440.62 439.38C440.33 439.1 440.18 438.37 440.04 437.36C440.47 437.79 441.19 437.94 442.06 437.94C443.22 437.94 444.38 437.65 445.39 437.07C445.18 438.46 443.44 449.58 443.22 450.97C442.93 452.56 442.79 453.86 442.79 454.88C442.79 456.33 443.08 457.05 443.66 457.05C444.24 457.05 445.25 456.18 446.7 454.3C448.14 452.42 449.3 450.39 450.32 448.36C450.39 448.43 450.97 449.01 451.04 449.09C449.88 451.84 448.43 454.3 446.7 456.47C444.96 458.64 443.66 459.66 442.64 459.66C441.34 459.66 440.76 458.21 440.76 455.6C441.05 454.59 441.05 453.43 441.34 452.13C440.33 454.44 439.31 456.33 438.15 457.77ZM438.44 447.06C437.43 447.06 436.71 447.78 435.98 449.38C435.26 450.97 434.97 452.71 434.82 454.88C434.82 456.62 435.26 457.48 436.13 457.48C437 457.48 438.73 454.88 441.34 449.52C441.48 449.38 441.63 449.23 441.77 448.8C440.47 447.64 439.31 447.06 438.44 447.06Z" id="igvQMS3Ga"></path><path d="M455.53 457.19C454.08 459.08 452.78 459.95 451.62 459.95C450.9 459.95 450.32 459.66 449.88 459.08C449.45 458.5 449.3 457.63 449.3 456.62C449.3 456.18 449.3 455.6 449.45 454.88C449.48 454.73 449.71 453.57 449.74 453.43C450.03 451.4 450.17 449.95 450.17 449.23C450.17 448.8 450.03 448.36 449.88 448.07C450.75 447.78 451.19 447.64 451.48 447.64C451.91 447.64 452.2 448.07 452.2 448.94C452.2 449.52 452.05 450.53 451.91 451.69C451.87 451.94 451.52 453.91 451.48 454.15C451.33 455.31 451.19 456.18 451.19 456.47C451.19 457.48 451.48 458.06 452.2 458.06C452.92 458.06 454.08 457.19 455.38 455.46C456.69 453.72 457.99 451.4 459.29 448.8C459.33 448.83 459.53 449.03 459.87 449.38C457.94 453.33 456.49 455.94 455.53 457.19ZM451.48 442.86C452.05 442.86 452.63 442.57 453.5 441.99C454.37 441.41 454.95 440.83 455.38 440.4C455.1 441.56 454.66 442.57 453.94 443.29C452.92 444.45 452.05 445.03 451.76 445.03C451.48 445.03 451.33 444.89 451.33 444.45C451.19 443.87 451.33 443.44 451.48 442.86C451.48 442.86 451.48 442.86 451.48 442.86Z" id="clldr7vo3"></path><path d="M466.39 445.76C467.84 445.76 468.42 447.64 468.42 451.4C468.42 451.56 468.42 452.84 468.42 453C468.42 454.73 468.42 456.04 468.56 456.62C468.71 457.19 469 457.63 469.29 457.63C469.86 457.63 470.44 457.05 471.17 455.89C471.89 454.73 473.05 452.42 474.64 448.94C474.71 449 475.29 449.46 475.37 449.52C473.92 453 472.62 455.6 471.6 457.34C470.44 459.08 469.43 459.8 468.56 459.8C467.69 459.8 467.26 459.22 466.82 458.21C466.39 457.19 466.39 455.31 466.39 452.85C466.39 452.73 466.39 451.81 466.39 451.69C466.39 450.24 466.39 449.38 466.24 448.8C466.1 448.22 465.95 447.93 465.52 447.93C464.65 447.93 463.35 450.1 461.47 454.59C461.03 455.6 460.74 456.33 460.6 456.62C460.16 457.77 459.87 458.5 459.87 459.08C459.87 459.22 459.87 459.51 460.02 459.66C459.58 459.8 459.29 459.95 459.15 459.95C458.57 459.95 458.14 459.51 458.14 458.5C458.14 458.21 458.28 457.05 458.43 454.88C458.45 454.6 458.69 452.4 458.71 452.13C458.86 450.97 458.86 450.1 458.86 449.38C458.86 448.51 458.71 447.78 458.43 447.2C458.57 447.2 458.71 447.06 459.15 446.91C459.58 446.77 459.87 446.62 460.16 446.62C460.6 446.62 460.89 447.06 460.89 448.07C460.89 448.51 460.89 449.52 460.74 450.68C460.74 450.97 460.74 451.26 460.74 451.4C460.71 451.65 460.57 452.91 460.31 455.17C463.2 448.89 465.23 445.76 466.39 445.76Z" id="f1U2O4uDuf"></path><path d="M477.83 456.76C476.67 458.06 475.66 458.64 474.64 458.64C473.92 458.64 473.34 458.35 472.9 457.63C472.47 456.9 472.33 456.18 472.33 455.17C472.33 452.85 473.05 450.68 474.35 448.8C475.66 446.91 477.1 445.9 478.7 445.9C479.57 445.9 480.43 446.19 481.3 446.91C481.45 446.05 481.59 445.61 481.88 445.32C482.17 445.18 482.75 444.89 483.76 444.89C483.33 446.19 482.75 449.38 482.32 454.3C482.3 454.43 482.19 455.47 482.17 455.6C484.92 453.43 486.95 451.26 488.54 448.94C488.62 449.01 489.19 449.59 489.27 449.67C487.82 452.13 485.5 454.73 482.03 457.48C482.03 457.77 482.03 458.06 482.03 458.21C481.88 460.38 481.74 461.83 481.45 462.84C481.16 463.86 480.72 464.72 480.14 465.74C478.84 467.48 477.39 468.34 475.66 468.34C474.64 468.34 473.92 468.05 473.34 467.48C472.76 466.9 472.47 466.17 472.47 465.16C472.47 464.29 472.76 463.42 473.19 462.7C473.77 461.97 474.64 461.1 476.09 460.24C476.96 459.66 478.41 458.64 480 457.34C480.04 457 480.23 455.31 480.58 452.27C479.52 454.4 478.6 455.89 477.83 456.76ZM478.41 447.2C477.54 447.2 476.52 447.93 475.8 449.52C474.93 451.11 474.5 452.71 474.5 454.44C474.5 455.75 474.79 456.33 475.51 456.33C476.24 456.33 477.1 455.6 478.26 454.15C479.28 452.71 480.29 450.97 481.16 448.94C480.29 447.78 479.42 447.2 478.41 447.2ZM477.97 460.67C475.8 462.26 474.64 463.71 474.64 465.01C474.64 465.59 474.79 466.03 475.22 466.46C475.51 466.9 476.09 467.04 476.52 467.04C478.84 466.9 480.14 464.29 480.14 458.93C479.71 459.22 478.99 459.8 477.97 460.67Z" id="aA2p4Nd9G"></path><path d="M502.15 457.92C500.42 459.8 498.82 460.81 497.38 460.81C496.22 460.81 495.2 460.24 494.48 459.08C493.76 457.92 493.32 456.47 493.32 454.73C493.32 452.42 494.05 450.39 495.35 448.65C496.65 446.91 498.24 446.05 499.98 446.05C500.71 446.05 501.29 446.19 501.72 446.62C502.15 447.06 502.44 447.49 502.44 448.07C502.44 448.94 501.86 449.67 500.71 450.1C500.71 449.95 500.85 449.67 500.85 449.52C500.85 448.22 500.27 447.49 499.26 447.49C498.24 447.49 497.38 448.22 496.65 449.52C495.78 450.97 495.49 452.42 495.49 454.15C495.49 455.46 495.78 456.62 496.22 457.48C496.8 458.35 497.38 458.79 498.24 458.79C500.56 458.79 503.31 455.6 506.5 449.23C506.54 449.27 506.73 449.46 507.08 449.81C504.95 453.86 503.31 456.57 502.15 457.92Z" id="c1wHN6BZmh"></path><path d="M514.61 451.4C514.61 453.86 513.88 455.89 512.72 457.77C511.57 459.66 509.97 460.52 508.38 460.52C507.08 460.52 506.06 459.95 505.34 458.93C504.62 457.92 504.18 456.47 504.18 454.73C504.18 452.71 504.76 451.11 505.77 449.67C506.79 448.22 508.09 447.49 509.39 447.49C509.54 447.49 509.83 447.49 510.12 447.64C509.97 447.2 509.83 446.91 509.83 446.62C509.83 446.19 509.97 445.9 510.12 445.47C511.71 445.61 512.87 446.77 513.88 448.65C514.9 449.67 516.05 450.1 517.21 450.1C517.94 450.1 518.81 449.81 519.67 449.09C519.72 449.19 520.07 450 520.11 450.1C519.1 450.97 518.08 451.55 517.07 451.55C516.2 451.4 515.48 451.26 514.61 450.82C514.61 450.97 514.61 451.26 514.61 451.4ZM510.99 448.8C510.7 448.65 510.41 448.65 510.12 448.65C509.1 448.65 508.09 449.23 507.22 450.53C506.35 451.84 505.92 453.29 505.92 454.88C505.92 456.04 506.21 457.05 506.64 457.77C507.08 458.5 507.8 458.93 508.52 458.93C509.54 458.93 510.55 458.21 511.28 456.76C512 455.31 512.43 453.57 512.43 451.69C512.58 451.11 512.58 450.39 512.43 449.81C511.86 449.67 511.42 449.23 510.99 448.8Z" id="bXXUAMeoW"></path><path d="M526.62 446.33C528.07 446.33 528.65 448.22 528.65 451.98C528.65 452.14 528.65 453.42 528.65 453.57C528.65 455.31 528.65 456.62 528.8 457.19C528.94 457.92 529.23 458.21 529.52 458.21C530.1 458.21 530.68 457.63 531.4 456.47C532.13 455.31 533.29 453 534.88 449.52C534.95 449.58 535.53 450.04 535.6 450.1C534.15 453.57 532.85 456.18 531.84 457.92C530.68 459.66 529.67 460.38 528.8 460.38C527.93 460.38 527.49 459.8 527.06 458.79C526.62 457.77 526.62 455.89 526.62 453.43C526.62 453.31 526.62 452.39 526.62 452.27C526.62 450.82 526.62 449.95 526.48 449.38C526.33 448.8 526.19 448.51 525.76 448.51C524.89 448.51 523.58 450.68 521.7 455.17C521.27 456.18 520.98 456.9 520.83 457.19C520.4 458.35 520.11 459.08 520.11 459.66C520.11 459.8 520.11 460.09 520.25 460.24C519.82 460.38 519.53 460.52 519.38 460.52C518.81 460.52 518.37 460.09 518.37 459.08C518.37 458.79 518.52 457.63 518.66 455.46C518.69 455.18 518.92 452.98 518.95 452.71C519.1 451.55 519.1 450.68 519.1 449.95C519.1 449.09 518.95 448.36 518.66 447.78C518.81 447.78 518.95 447.64 519.38 447.49C519.82 447.35 520.11 447.2 520.4 447.2C520.83 447.2 521.12 447.64 521.12 448.65C521.12 449.09 521.12 449.95 520.98 451.26C520.98 451.55 520.98 451.84 520.98 451.98C520.95 452.23 520.8 453.49 520.54 455.75C523.44 449.47 525.47 446.33 526.62 446.33Z" id="db505tAeCJ"></path><path d="M542.26 446.48C543.71 446.48 544.29 448.36 544.29 452.13C544.29 452.29 544.29 453.56 544.29 453.72C544.29 455.46 544.29 456.76 544.43 457.34C544.58 457.92 544.87 458.35 545.16 458.35C545.74 458.35 546.32 457.77 547.04 456.62C547.76 455.46 548.92 453.14 550.52 449.67C550.59 449.72 551.17 450.19 551.24 450.24C549.79 453.72 548.49 456.33 547.48 458.06C546.32 459.8 545.3 460.52 544.43 460.52C543.57 460.52 543.13 459.95 542.7 458.93C542.41 457.92 542.26 456.04 542.26 453.57C542.26 453.46 542.26 452.53 542.26 452.42C542.26 450.97 542.26 450.1 542.12 449.52C541.97 448.94 541.83 448.65 541.39 448.65C540.52 448.65 539.22 450.82 537.34 455.31C536.9 456.33 536.62 457.05 536.47 457.34C536.04 458.5 535.75 459.22 535.75 459.8C535.75 459.95 535.75 460.24 535.89 460.38C535.46 460.52 535.17 460.67 535.02 460.67C534.44 460.67 534.01 460.24 534.01 459.22C534.01 458.93 534.15 457.77 534.3 455.6C534.33 455.33 534.56 453.13 534.59 452.85C534.73 451.69 534.73 450.82 534.73 450.1C534.73 449.23 534.59 448.51 534.3 447.93C534.44 447.93 534.59 447.78 535.02 447.64C535.46 447.49 535.75 447.35 535.89 447.35C536.33 447.35 536.62 447.78 536.62 448.8C536.62 449.23 536.62 450.1 536.47 451.4C536.47 451.69 536.47 451.98 536.47 452.13C536.45 452.38 536.35 453.63 536.18 455.89C539.08 449.62 541.1 446.48 542.26 446.48Z" id="b1RnkDTsB"></path><path d="M552.98 458.93C554.28 458.93 555.87 458.06 557.47 456.33C559.06 454.59 560.65 452.42 561.95 449.52C562.04 449.58 562.74 450.04 562.82 450.1C561.52 453.14 559.93 455.75 557.9 457.77C555.87 459.8 553.99 460.81 552.25 460.81C551.1 460.81 550.23 460.38 549.5 459.37C548.78 458.35 548.49 457.05 548.49 455.31C548.49 452.85 549.07 450.82 550.37 449.09C551.53 447.35 552.98 446.48 554.71 446.48C555.58 446.48 556.16 446.77 556.6 447.35C557.03 447.93 557.32 448.65 557.32 449.52C557.32 450.97 556.6 452.42 555.29 453.57C553.99 454.73 552.4 455.17 550.66 455.17C550.66 457.63 551.38 458.93 552.98 458.93ZM554.14 452.56C555.15 451.69 555.58 450.53 555.58 449.38C555.58 448.36 555.29 447.78 554.57 447.78C553.7 447.78 552.98 448.36 552.11 449.67C551.38 450.82 550.95 452.27 550.66 454.01C551.96 453.86 553.12 453.43 554.14 452.56Z" id="b1jzN0akkC"></path><path d="M568.9 458.5C567.17 460.38 565.57 461.39 564.13 461.39C562.97 461.39 561.95 460.81 561.23 459.66C560.51 458.5 560.07 457.05 560.07 455.31C560.07 453 560.8 450.97 562.1 449.23C563.4 447.49 565 446.62 566.73 446.62C567.46 446.62 568.04 446.77 568.47 447.2C568.9 447.64 569.19 448.07 569.19 448.65C569.19 449.52 568.62 450.24 567.46 450.68C567.46 450.53 567.6 450.24 567.6 450.1C567.6 448.8 567.02 448.07 566.01 448.07C565 448.07 564.13 448.8 563.4 450.1C562.53 451.55 562.24 453 562.24 454.73C562.24 456.04 562.53 457.19 562.97 458.06C563.55 458.93 564.13 459.37 565 459.37C567.31 459.37 570.06 456.18 573.25 449.81C573.29 449.85 573.48 450.04 573.83 450.39C571.7 454.44 570.06 457.15 568.9 458.5Z" id="aBsb8tH8u"></path><path d="M578.61 456.9C578.61 457.77 578.03 458.64 577.01 459.66C576 460.67 574.99 461.1 574.12 461.1C573.39 461.1 572.81 460.67 572.24 459.8C571.8 458.93 571.51 457.77 571.51 456.33C571.51 454.73 571.8 452.42 572.52 449.52C572.55 449.38 572.7 448.65 572.96 447.35C572 447.35 571.47 447.35 571.37 447.35C570.64 447.35 570.21 447.49 569.77 447.78C570.21 446.91 570.5 446.33 570.64 446.19C570.93 445.9 571.22 445.9 571.8 445.9C571.9 445.9 572.38 445.9 573.25 445.9C573.34 445.38 573.38 445.09 573.39 445.03C573.68 443.73 574.12 442.86 574.41 442.43C574.84 441.99 575.42 441.7 576.29 441.7C576.43 441.7 576.58 441.7 576.72 441.7C576.29 442.57 575.71 444.02 575.13 445.9C575.64 445.9 579.69 445.9 580.2 445.9C581.07 445.9 581.79 445.76 582.23 445.47C582.08 446.33 581.79 446.91 581.65 447.2C581.36 447.49 580.92 447.64 580.2 447.64C579.66 447.64 575.38 447.64 574.84 447.64C574.84 447.93 574.7 448.07 574.7 448.22C573.97 451.69 573.54 454.3 573.54 456.04C573.54 458.06 573.97 458.93 575.13 458.93C575.71 458.93 576.29 458.64 576.87 458.06C577.59 457.19 578.03 456.47 578.32 455.75C578.46 456.18 578.61 456.47 578.61 456.9Z" id="cSMACHAET"></path><path d="M586.57 458.35C585.12 460.24 583.82 461.1 582.66 461.1C581.94 461.1 581.36 460.81 580.92 460.24C580.49 459.66 580.34 458.79 580.34 457.77C580.34 457.34 580.34 456.76 580.49 456.04C580.52 455.89 580.75 454.73 580.78 454.59C581.07 452.56 581.21 451.11 581.21 450.39C581.21 449.95 581.07 449.52 580.92 449.23C581.79 448.94 582.23 448.8 582.52 448.8C582.95 448.8 583.24 449.23 583.24 450.1C583.24 450.68 583.1 451.69 582.95 452.85C582.91 453.1 582.56 455.07 582.52 455.31C582.37 456.47 582.23 457.34 582.23 457.63C582.23 458.64 582.52 459.22 583.24 459.22C583.96 459.22 585.12 458.35 586.43 456.62C587.73 454.88 589.03 452.56 590.33 449.95C590.37 449.99 590.57 450.19 590.91 450.53C588.98 454.49 587.54 457.1 586.57 458.35ZM582.66 444.02C583.24 444.02 583.82 443.73 584.69 443.15C585.56 442.57 586.14 441.99 586.57 441.56C586.28 442.71 585.85 443.73 585.12 444.45C584.11 445.61 583.24 446.19 582.95 446.19C582.66 446.19 582.52 446.05 582.52 445.61C582.37 445.03 582.52 444.45 582.66 444.02C582.66 444.02 582.66 444.02 582.66 444.02Z" id="a2KbuaHWNn"></path><path d="M598.44 452.13C598.44 454.59 597.72 456.62 596.56 458.5C595.26 460.24 593.81 461.25 592.22 461.25C590.91 461.25 589.9 460.67 589.18 459.66C588.45 458.5 588.02 457.19 588.02 455.46C588.02 453.43 588.6 451.84 589.61 450.39C590.62 448.94 591.93 448.22 593.23 448.22C593.38 448.22 593.67 448.22 593.95 448.36C593.81 447.93 593.67 447.64 593.67 447.35C593.67 446.91 593.81 446.62 593.95 446.19C595.55 446.33 596.71 447.49 597.72 449.38C598.73 450.39 599.89 450.82 601.05 450.82C601.77 450.82 602.64 450.53 603.51 449.81C603.55 449.91 603.9 450.72 603.95 450.82C602.93 451.69 601.92 452.27 600.9 452.27C600.18 452.13 599.46 451.98 598.44 451.55C598.44 451.69 598.44 451.98 598.44 452.13ZM594.97 449.52C594.68 449.38 594.39 449.38 594.1 449.38C593.09 449.38 592.07 449.95 591.2 451.26C590.33 452.56 589.9 454.01 589.9 455.6C589.9 456.76 590.19 457.77 590.62 458.5C591.06 459.22 591.78 459.66 592.51 459.66C593.52 459.66 594.53 458.93 595.26 457.48C595.98 456.04 596.42 454.3 596.42 452.42C596.56 451.84 596.56 451.11 596.42 450.53C595.84 450.39 595.4 449.95 594.97 449.52Z" id="a1BWY10T8"></path><path d="M610.61 447.06C612.05 447.06 612.63 448.94 612.63 452.71C612.63 452.87 612.63 454.14 612.63 454.3C612.63 456.04 612.63 457.34 612.78 457.92C612.92 458.64 613.21 458.93 613.5 458.93C614.08 458.93 614.66 458.35 615.38 457.19C616.11 456.04 617.27 453.72 618.86 450.24C618.93 450.3 619.51 450.77 619.58 450.82C618.14 454.3 616.83 456.9 615.82 458.64C614.81 460.38 613.65 461.1 612.78 461.1C611.91 461.1 611.48 460.52 611.04 459.51C610.61 458.5 610.61 456.62 610.61 454.15C610.61 454.04 610.61 453.11 610.61 453C610.61 451.55 610.61 450.68 610.46 450.1C610.32 449.52 610.17 449.23 609.74 449.23C608.87 449.23 607.57 451.4 605.68 455.89C605.25 456.9 604.96 457.63 604.81 457.92C604.38 459.08 604.09 459.8 604.09 460.38C604.09 460.52 604.09 460.81 604.24 460.96C603.8 461.1 603.51 461.25 603.37 461.25C602.79 461.25 602.35 460.81 602.35 459.8C602.35 459.51 602.5 458.35 602.64 456.18C602.67 455.91 602.9 453.7 602.93 453.43C603.08 452.27 603.08 451.4 603.08 450.68C603.08 449.81 602.93 449.09 602.64 448.51C602.79 448.51 602.93 448.36 603.37 448.22C603.8 448.07 604.09 447.93 604.24 447.93C604.67 447.93 604.96 448.36 604.96 449.38C604.96 449.81 604.96 450.68 604.81 451.98C604.81 452.27 604.81 452.56 604.81 452.71C604.8 452.96 604.7 454.21 604.52 456.47C607.42 450.2 609.45 447.06 610.61 447.06Z" id="a1zTq8ikPp"></path><path d="M618.14 457.92C618.57 457.77 618.86 457.77 619.15 457.77C619.73 457.77 620.02 458.21 620.02 458.93C620.02 459.22 620.02 459.66 619.87 460.09C619.86 460.15 619.82 460.44 619.73 460.96C619.47 461.05 619.32 461.09 619.29 461.1C618.71 461.25 618.28 461.39 618.14 461.39C617.7 461.39 617.41 461.1 617.41 460.38C617.41 460.24 617.41 460.09 617.41 459.95C617.41 459.92 617.41 459.69 617.41 459.66C617.41 459.51 617.41 459.37 617.41 459.22C617.7 458.5 617.56 458.21 617.41 458.06C617.56 458.03 618.06 457.93 618.14 457.92Z" id="e1UVYr4Qqy"></path><path d="M624.65 457.92C625.09 457.77 625.38 457.77 625.67 457.77C626.24 457.77 626.53 458.21 626.53 458.93C626.53 459.22 626.53 459.66 626.39 460.09C626.38 460.15 626.33 460.44 626.24 460.96C625.98 461.05 625.84 461.09 625.81 461.1C625.23 461.25 624.8 461.39 624.65 461.39C624.22 461.39 623.93 461.1 623.93 460.38C623.93 460.24 623.93 460.09 623.93 459.95C623.93 459.92 623.93 459.69 623.93 459.66C623.93 459.51 623.93 459.37 623.93 459.22C624.07 458.64 623.93 458.35 623.93 458.06C624.07 458.03 624.58 457.93 624.65 457.92Z" id="c5AEUJTHag"></path><path d="M631.02 457.92C631.46 457.77 631.75 457.77 632.04 457.77C632.62 457.77 632.9 458.21 632.9 458.93C632.9 459.22 632.9 459.66 632.76 460.09C632.75 460.15 632.7 460.44 632.62 460.96C632.35 461.05 632.21 461.09 632.18 461.1C631.6 461.25 631.17 461.39 631.02 461.39C630.59 461.39 630.3 461.1 630.3 460.38C630.3 460.24 630.3 460.09 630.3 459.95C630.3 459.92 630.3 459.69 630.3 459.66C630.3 459.51 630.3 459.37 630.3 459.22C630.44 458.64 630.44 458.35 630.3 458.06C630.44 458.03 630.95 457.93 631.02 457.92Z" id="clpdbRoq7"></path></defs><g><g><g><use xlink:href="#cdORvGFXx" opacity="1" fill-opacity="0" stroke="#000000" stroke-width="1" stroke-opacity="0"></use></g></g><g><use xlink:href="#h5n00NGBI" opacity="1" fill="#1eb9d7" fill-opacity="1"></use><g><use xlink:href="#h5n00NGBI" opacity="1" fill-opacity="0" stroke="#000000" stroke-width="1" stroke-opacity="0"></use></g></g><g><use xlink:href="#dQEeehT9t" opacity="1" fill="#1eb9d7" fill-opacity="1"></use><g><use xlink:href="#dQEeehT9t" opacity="1" fill-opacity="0" stroke="#000000" stroke-width="1" stroke-opacity="0"></use></g></g><g><use xlink:href="#d1JEfU8rp" opacity="1" fill="#1eb9d7" fill-opacity="1"></use><g><use xlink:href="#d1JEfU8rp" opacity="1" fill-opacity="0" stroke="#000000" stroke-width="1" stroke-opacity="0"></use></g></g><g><use xlink:href="#a17p7DFbAr" opacity="1" fill="#1eb9d7" fill-opacity="1"></use><g><use xlink:href="#a17p7DFbAr" opacity="1" fill-opacity="0" stroke="#000000" stroke-width="1" stroke-opacity="0"></use></g></g><g><use xlink:href="#d4SCGIQYC" opacity="1" fill="#000000" fill-opacity="0"></use><g><use xlink:href="#d4SCGIQYC" opacity="1" fill-opacity="0" stroke="#ffffff" stroke-width="3" stroke-opacity="1"></use></g></g><g><use xlink:href="#e1hxmoJP7S" opacity="1" fill="#1eb9d7" fill-opacity="1"></use><g><use xlink:href="#e1hxmoJP7S" opacity="1" fill-opacity="0" stroke="#000000" stroke-width="1" stroke-opacity="0"></use></g></g><g><use xlink:href="#eSUfY5zQe" opacity="1" fill="#000000" fill-opacity="0"></use><g><use xlink:href="#eSUfY5zQe" opacity="1" fill-opacity="0" stroke="#ffffff" stroke-width="3" stroke-opacity="1"></use></g></g><g><use xlink:href="#daZsPvyJM" opacity="1" fill="#1eb9d7" fill-opacity="1"></use><g><use xlink:href="#daZsPvyJM" opacity="1" fill-opacity="0" stroke="#000000" stroke-width="1" stroke-opacity="0"></use></g></g><g><use xlink:href="#b45FAi2tcc" opacity="1" fill="#1eb9d7" fill-opacity="1"></use><g><use xlink:href="#b45FAi2tcc" opacity="1" fill-opacity="0" stroke="#000000" stroke-width="1" stroke-opacity="0"></use></g></g><g><use xlink:href="#d4tDx2walw" opacity="1" fill="#ffffff" fill-opacity="1"></use><g><use xlink:href="#d4tDx2walw" opacity="1" fill-opacity="0" stroke="#000000" stroke-width="1" stroke-opacity="0"></use></g></g><g><use xlink:href="#b2od4rRzk5" opacity="1" fill="#ffffff" fill-opacity="1"></use><g><use xlink:href="#b2od4rRzk5" opacity="1" fill-opacity="0" stroke="#000000" stroke-width="1" stroke-opacity="0"></use></g></g><g><use xlink:href="#ac73DaGaP" opacity="1" fill="#ffffff" fill-opacity="1"></use><g><use xlink:href="#ac73DaGaP" opacity="1" fill-opacity="0" stroke="#000000" stroke-width="1" stroke-opacity="0"></use></g></g><g><use xlink:href="#b3BqpsDnn" opacity="1" fill="#ffffff" fill-opacity="1"></use><g><use xlink:href="#b3BqpsDnn" opacity="1" fill-opacity="0" stroke="#000000" stroke-width="1" stroke-opacity="0"></use></g></g><g><use xlink:href="#a2vM9YzRR" opacity="1" fill="#ffffff" fill-opacity="1"></use><g><use xlink:href="#a2vM9YzRR" opacity="1" fill-opacity="0" stroke="#000000" stroke-width="1" stroke-opacity="0"></use></g></g><g><use xlink:href="#a3BeiX1zwg" opacity="1" fill="#ffffff" fill-opacity="1"></use><g><use xlink:href="#a3BeiX1zwg" opacity="1" fill-opacity="0" stroke="#000000" stroke-width="1" stroke-opacity="0"></use></g></g><g><use xlink:href="#b7HMAQcHd" opacity="1" fill="#ffffff" fill-opacity="1"></use><g><use xlink:href="#b7HMAQcHd" opacity="1" fill-opacity="0" stroke="#000000" stroke-width="1" stroke-opacity="0"></use></g></g><g><use xlink:href="#b2QfmrJEbF" opacity="1" fill="#ffffff" fill-opacity="1"></use><g><use xlink:href="#b2QfmrJEbF" opacity="1" fill-opacity="0" stroke="#000000" stroke-width="1" stroke-opacity="0"></use></g></g><g><use xlink:href="#b4LXPlJbb" opacity="1" fill="#ffffff" fill-opacity="1"></use><g><use xlink:href="#b4LXPlJbb" opacity="1" fill-opacity="0" stroke="#000000" stroke-width="1" stroke-opacity="0"></use></g></g><g><use xlink:href="#c1eWc7BrQN" opacity="1" fill="#ffffff" fill-opacity="1"></use><g><use xlink:href="#c1eWc7BrQN" opacity="1" fill-opacity="0" stroke="#000000" stroke-width="1" stroke-opacity="0"></use></g></g><g><use xlink:href="#c6pHEx5NH" opacity="1" fill="#ffffff" fill-opacity="1"></use><g><use xlink:href="#c6pHEx5NH" opacity="1" fill-opacity="0" stroke="#000000" stroke-width="1" stroke-opacity="0"></use></g></g><g><use xlink:href="#fzSq8d32V" opacity="1" fill="#ffffff" fill-opacity="1"></use><g><use xlink:href="#fzSq8d32V" opacity="1" fill-opacity="0" stroke="#000000" stroke-width="1" stroke-opacity="0"></use></g></g><g><use xlink:href="#b3vZCnYzg5" opacity="1" fill="#ffffff" fill-opacity="1"></use><g><use xlink:href="#b3vZCnYzg5" opacity="1" fill-opacity="0" stroke="#000000" stroke-width="1" stroke-opacity="0"></use></g></g><g><use xlink:href="#b2CggG5ic4" opacity="1" fill="#ffffff" fill-opacity="1"></use><g><use xlink:href="#b2CggG5ic4" opacity="1" fill-opacity="0" stroke="#000000" stroke-width="1" stroke-opacity="0"></use></g></g><g><use xlink:href="#eGLnhJfM1" opacity="1" fill="#ffffff" fill-opacity="1"></use><g><use xlink:href="#eGLnhJfM1" opacity="1" fill-opacity="0" stroke="#000000" stroke-width="1" stroke-opacity="0"></use></g></g><g><use xlink:href="#aas8IGjgN" opacity="1" fill="#ffffff" fill-opacity="1"></use><g><use xlink:href="#aas8IGjgN" opacity="1" fill-opacity="0" stroke="#000000" stroke-width="1" stroke-opacity="0"></use></g></g><g><use xlink:href="#cyt4KSEiP" opacity="1" fill="#ffffff" fill-opacity="1"></use><g><use xlink:href="#cyt4KSEiP" opacity="1" fill-opacity="0" stroke="#000000" stroke-width="1" stroke-opacity="0"></use></g></g><g><use xlink:href="#cs3wjcPqr" opacity="1" fill="#ffffff" fill-opacity="1"></use><g><use xlink:href="#cs3wjcPqr" opacity="1" fill-opacity="0" stroke="#000000" stroke-width="1" stroke-opacity="0"></use></g></g><g><use xlink:href="#b14WWjAeto" opacity="1" fill="#ffffff" fill-opacity="1"></use><g><use xlink:href="#b14WWjAeto" opacity="1" fill-opacity="0" stroke="#000000" stroke-width="1" stroke-opacity="0"></use></g></g><g><use xlink:href="#b5csqgHOS" opacity="1" fill="#ffffff" fill-opacity="1"></use><g><use xlink:href="#b5csqgHOS" opacity="1" fill-opacity="0" stroke="#ffffff" stroke-width="0.5" stroke-opacity="1"></use></g></g><g><use xlink:href="#ajsgSD8CD" opacity="1" fill="#ffffff" fill-opacity="1"></use><g><use xlink:href="#ajsgSD8CD" opacity="1" fill-opacity="0" stroke="#ffffff" stroke-width="0.5" stroke-opacity="1"></use></g></g><g><use xlink:href="#b3LXZTEaxi" opacity="1" fill="#ffffff" fill-opacity="1"></use><g><use xlink:href="#b3LXZTEaxi" opacity="1" fill-opacity="0" stroke="#ffffff" stroke-width="0.5" stroke-opacity="1"></use></g></g><g><use xlink:href="#b1e81YPZMO" opacity="1" fill="#ffffff" fill-opacity="1"></use><g><use xlink:href="#b1e81YPZMO" opacity="1" fill-opacity="0" stroke="#ffffff" stroke-width="0.5" stroke-opacity="1"></use></g></g><g><use xlink:href="#a1kIw9VOS" opacity="1" fill="#ffffff" fill-opacity="1"></use><g><use xlink:href="#a1kIw9VOS" opacity="1" fill-opacity="0" stroke="#ffffff" stroke-width="0.5" stroke-opacity="1"></use></g></g><g><use xlink:href="#b6FNmX7Gi" opacity="1" fill="#ffffff" fill-opacity="1"></use><g><use xlink:href="#b6FNmX7Gi" opacity="1" fill-opacity="0" stroke="#ffffff" stroke-width="0.5" stroke-opacity="1"></use></g></g><g><use xlink:href="#g1W0lacL" opacity="1" fill="#ffffff" fill-opacity="1"></use><g><use xlink:href="#g1W0lacL" opacity="1" fill-opacity="0" stroke="#ffffff" stroke-width="0.5" stroke-opacity="1"></use></g></g><g><use xlink:href="#hbhI79DaZ" opacity="1" fill="#1eb9d7" fill-opacity="1"></use><g><use xlink:href="#hbhI79DaZ" opacity="1" fill-opacity="0" stroke="#000000" stroke-width="1" stroke-opacity="0"></use></g></g><g><use xlink:href="#e4TokCnGPb" opacity="1" fill="#1eb9d7" fill-opacity="1"></use><g><use xlink:href="#e4TokCnGPb" opacity="1" fill-opacity="0" stroke="#000000" stroke-width="1" stroke-opacity="0"></use></g></g><g><use xlink:href="#a6XV5ulXi" opacity="1" fill="#1eb9d7" fill-opacity="1"></use><g><use xlink:href="#a6XV5ulXi" opacity="1" fill-opacity="0" stroke="#000000" stroke-width="1" stroke-opacity="0"></use></g></g><g><use xlink:href="#c9HePaKA3s" opacity="1" fill="#1eb9d7" fill-opacity="1"></use><g><use xlink:href="#c9HePaKA3s" opacity="1" fill-opacity="0" stroke="#000000" stroke-width="1" stroke-opacity="0"></use></g></g><g><use xlink:href="#cOT9N8IUR" opacity="1" fill="#1eb9d7" fill-opacity="1"></use><g><use xlink:href="#cOT9N8IUR" opacity="1" fill-opacity="0" stroke="#000000" stroke-width="1" stroke-opacity="0"></use></g></g><g><use xlink:href="#aMb7TknD" opacity="1" fill="#1eb9d7" fill-opacity="1"></use><g><use xlink:href="#aMb7TknD" opacity="1" fill-opacity="0" stroke="#000000" stroke-width="1" stroke-opacity="0"></use></g></g><g><use xlink:href="#b1bbinnUfz" opacity="1" fill="#1eb9d7" fill-opacity="1"></use><g><use xlink:href="#b1bbinnUfz" opacity="1" fill-opacity="0" stroke="#000000" stroke-width="1" stroke-opacity="0"></use></g></g><g><use xlink:href="#aNMfa5Yvt" opacity="1" fill="#1eb9d7" fill-opacity="1"></use><g><use xlink:href="#aNMfa5Yvt" opacity="1" fill-opacity="0" stroke="#000000" stroke-width="1" stroke-opacity="0"></use></g></g><g><use xlink:href="#a6lIkrILmF" opacity="1" fill="#1eb9d7" fill-opacity="1"></use><g><use xlink:href="#a6lIkrILmF" opacity="1" fill-opacity="0" stroke="#000000" stroke-width="1" stroke-opacity="0"></use></g></g><g><use xlink:href="#igvQMS3Ga" opacity="1" fill="#1eb9d7" fill-opacity="1"></use><g><use xlink:href="#igvQMS3Ga" opacity="1" fill-opacity="0" stroke="#000000" stroke-width="1" stroke-opacity="0"></use></g></g><g><use xlink:href="#clldr7vo3" opacity="1" fill="#1eb9d7" fill-opacity="1"></use><g><use xlink:href="#clldr7vo3" opacity="1" fill-opacity="0" stroke="#000000" stroke-width="1" stroke-opacity="0"></use></g></g><g><use xlink:href="#f1U2O4uDuf" opacity="1" fill="#1eb9d7" fill-opacity="1"></use><g><use xlink:href="#f1U2O4uDuf" opacity="1" fill-opacity="0" stroke="#000000" stroke-width="1" stroke-opacity="0"></use></g></g><g><use xlink:href="#aA2p4Nd9G" opacity="1" fill="#1eb9d7" fill-opacity="1"></use><g><use xlink:href="#aA2p4Nd9G" opacity="1" fill-opacity="0" stroke="#000000" stroke-width="1" stroke-opacity="0"></use></g></g><g><use xlink:href="#c1wHN6BZmh" opacity="1" fill="#1eb9d7" fill-opacity="1"></use><g><use xlink:href="#c1wHN6BZmh" opacity="1" fill-opacity="0" stroke="#000000" stroke-width="1" stroke-opacity="0"></use></g></g><g><use xlink:href="#bXXUAMeoW" opacity="1" fill="#1eb9d7" fill-opacity="1"></use><g><use xlink:href="#bXXUAMeoW" opacity="1" fill-opacity="0" stroke="#000000" stroke-width="1" stroke-opacity="0"></use></g></g><g><use xlink:href="#db505tAeCJ" opacity="1" fill="#1eb9d7" fill-opacity="1"></use><g><use xlink:href="#db505tAeCJ" opacity="1" fill-opacity="0" stroke="#000000" stroke-width="1" stroke-opacity="0"></use></g></g><g><use xlink:href="#b1RnkDTsB" opacity="1" fill="#1eb9d7" fill-opacity="1"></use><g><use xlink:href="#b1RnkDTsB" opacity="1" fill-opacity="0" stroke="#000000" stroke-width="1" stroke-opacity="0"></use></g></g><g><use xlink:href="#b1jzN0akkC" opacity="1" fill="#1eb9d7" fill-opacity="1"></use><g><use xlink:href="#b1jzN0akkC" opacity="1" fill-opacity="0" stroke="#000000" stroke-width="1" stroke-opacity="0"></use></g></g><g><use xlink:href="#aBsb8tH8u" opacity="1" fill="#1eb9d7" fill-opacity="1"></use><g><use xlink:href="#aBsb8tH8u" opacity="1" fill-opacity="0" stroke="#000000" stroke-width="1" stroke-opacity="0"></use></g></g><g><use xlink:href="#cSMACHAET" opacity="1" fill="#1eb9d7" fill-opacity="1"></use><g><use xlink:href="#cSMACHAET" opacity="1" fill-opacity="0" stroke="#000000" stroke-width="1" stroke-opacity="0"></use></g></g><g><use xlink:href="#a2KbuaHWNn" opacity="1" fill="#1eb9d7" fill-opacity="1"></use><g><use xlink:href="#a2KbuaHWNn" opacity="1" fill-opacity="0" stroke="#000000" stroke-width="1" stroke-opacity="0"></use></g></g><g><use xlink:href="#a1BWY10T8" opacity="1" fill="#1eb9d7" fill-opacity="1"></use><g><use xlink:href="#a1BWY10T8" opacity="1" fill-opacity="0" stroke="#000000" stroke-width="1" stroke-opacity="0"></use></g></g><g><use xlink:href="#a1zTq8ikPp" opacity="1" fill="#1eb9d7" fill-opacity="1"></use><g><use xlink:href="#a1zTq8ikPp" opacity="1" fill-opacity="0" stroke="#000000" stroke-width="1" stroke-opacity="0"></use></g></g><g><use xlink:href="#e1UVYr4Qqy" opacity="1" fill="#1eb9d7" fill-opacity="1"></use><g><use xlink:href="#e1UVYr4Qqy" opacity="1" fill-opacity="0" stroke="#000000" stroke-width="1" stroke-opacity="0"></use></g></g><g><use xlink:href="#c5AEUJTHag" opacity="1" fill="#1eb9d7" fill-opacity="1"></use><g><use xlink:href="#c5AEUJTHag" opacity="1" fill-opacity="0" stroke="#000000" stroke-width="1" stroke-opacity="0"></use></g></g><g><use xlink:href="#clpdbRoq7" opacity="1" fill="#1eb9d7" fill-opacity="1"></use><g><use xlink:href="#clpdbRoq7" opacity="1" fill-opacity="0" stroke="#000000" stroke-width="1" stroke-opacity="0"></use></g></g></g></svg>