<?xml version="1.0" encoding="UTF-8" standalone="no"?>
<!DOCTYPE svg PUBLIC "-//W3C//DTD SVG 1.1//EN" "http://www.w3.org/Graphics/SVG/1.1/DTD/svg11.dtd">
<svg version="1.1" xmlns="http://www.w3.org/2000/svg" xmlns:xlink="http://www.w3.org/1999/xlink" preserveAspectRatio="xMidYMid meet" viewBox="-1 -0.9265559971158837 1129.9999900017187 858.8530849450042" width="1126" height="854.85"><defs><path d="M28.11 356.29C42.82 162.93 322.74 -17.07 565.1 1.38C807.46 19.82 946.96 381.17 932.25 574.53C917.54 767.89 787.13 774.32 544.77 755.88C302.41 737.44 13.39 549.65 28.11 356.29Z" id="cdnN4yhVL"></path><path d="M1071.01 755.94C1071.01 773.06 844.5 786.94 565.1 786.94C285.69 786.94 59.18 773.06 59.18 755.94C59.18 738.83 285.69 724.95 565.1 724.95C844.5 724.95 1071.01 738.83 1071.01 755.94Z" id="d1BnyZljiw"></path><path d="M996.02 755.44C996.02 766.76 803.09 775.94 565.1 775.94C327.1 775.94 134.17 766.76 134.17 755.44C134.17 744.12 327.1 734.95 565.1 734.95C803.09 734.95 996.02 744.12 996.02 755.44Z" id="cGbU89HK3"></path><path d="M424.31 836.43C424.31 846.65 329.33 854.93 212.16 854.93C94.99 854.93 0 846.65 0 836.43C0 826.21 94.99 817.93 212.16 817.93C329.33 817.93 424.31 826.21 424.31 836.43Z" id="a1lCIU7kVw"></path><path d="M392.87 836.13C392.87 842.89 311.96 848.36 212.16 848.36C112.35 848.36 31.45 842.89 31.45 836.13C31.45 829.38 112.35 823.9 212.16 823.9C311.96 823.9 392.87 829.38 392.87 836.13Z" id="i2jQyvrIVr"></path><path d="M948.03 162.05C948.03 162.05 948.03 162.05 948.03 162.05C948.03 515.98 948.03 712.62 948.03 751.94C948.03 751.94 948.03 751.94 948.03 751.94C496.91 751.94 246.28 751.94 196.16 751.94C196.16 751.94 196.16 751.94 196.16 751.94C196.16 398.01 196.16 201.37 196.16 162.05C196.16 162.05 196.16 162.05 196.16 162.05C647.28 162.05 897.91 162.05 948.03 162.05Z" id="aUUUeWIG"></path><path d="M378.06 242.66C376.81 242.66 375.8 241.66 375.8 240.41C375.8 239.17 376.8 238.16 378.05 238.16C378.05 238.16 378.05 238.16 378.06 238.16C396.6 238.16 544.99 238.16 563.54 238.16C564.78 238.16 565.79 239.17 565.79 240.41C565.78 241.65 564.78 242.66 563.54 242.66C526.44 242.66 396.6 242.66 378.06 242.66Z" id="b2SJfQYTZn"></path><path d="M474.85 267.42C473.61 267.42 472.6 266.41 472.6 265.17C472.6 263.93 473.61 262.92 474.85 262.92C504.02 262.92 737.41 262.92 766.59 262.92C767.83 262.92 768.84 263.93 768.84 265.17C768.84 266.41 767.83 267.42 766.59 267.42C766.59 267.42 766.59 267.42 766.59 267.42C766.59 267.42 504.02 267.42 474.85 267.42Z" id="b1jTCAIFay"></path><path d="M378.96 292.18C377.71 292.18 376.7 291.18 376.7 289.93C376.7 288.69 377.71 287.68 378.96 287.68C378.96 287.68 378.96 287.68 378.96 287.68C397.5 287.68 545.89 287.68 564.44 287.68C565.68 287.68 566.69 288.69 566.69 289.93C566.69 291.18 565.68 292.18 564.44 292.18C564.44 292.18 564.44 292.18 564.44 292.18C564.44 292.18 397.5 292.18 378.96 292.18Z" id="f1zRkmBdke"></path><path d="M581.1 292.63C579.86 292.63 578.85 291.63 578.85 290.38C578.85 289.14 579.86 288.13 581.1 288.13C599.65 288.13 748.04 288.13 766.59 288.13C767.83 288.13 768.84 289.14 768.84 290.38C768.84 291.63 767.83 292.63 766.59 292.63C766.59 292.63 766.59 292.63 766.59 292.63C766.59 292.63 599.65 292.63 581.1 292.63Z" id="dErBVEIDZ"></path><path d="M379.41 316.95C378.16 316.95 377.16 315.94 377.16 314.69C377.16 313.45 378.16 312.44 379.41 312.44C397.95 312.44 546.34 312.44 564.89 312.44C566.14 312.44 567.14 313.45 567.14 314.69C567.14 315.94 566.14 316.95 564.89 316.95C564.89 316.95 564.89 316.95 564.89 316.95C564.89 316.95 397.95 316.95 379.41 316.95Z" id="ayhotaeI1"></path><path d="M379.86 341.71C378.61 341.71 377.61 340.7 377.61 339.46C377.61 338.21 378.61 337.2 379.86 337.2C398.4 337.2 546.79 337.2 565.34 337.2C566.59 337.2 567.59 338.21 567.59 339.46C567.59 340.7 566.59 341.71 565.34 341.71C565.34 341.71 565.34 341.71 565.34 341.71C565.34 341.71 398.4 341.71 379.86 341.71Z" id="eV3O68Bd0"></path><path d="M596.41 243.11C595.16 243.11 594.16 242.1 594.16 240.86C594.16 239.62 595.16 238.61 596.41 238.61C601.72 238.61 644.22 238.61 649.53 238.61C650.77 238.61 651.78 239.62 651.78 240.86C651.78 242.1 650.77 243.11 649.53 243.11C649.53 243.11 649.53 243.11 649.53 243.11C649.53 243.11 601.72 243.11 596.41 243.11Z" id="c60faSxZ5"></path><path d="M596.41 316.95C595.16 316.95 594.16 315.94 594.16 314.69C594.16 313.45 595.16 312.44 596.41 312.44C601.72 312.44 644.22 312.44 649.53 312.44C650.77 312.44 651.78 313.45 651.78 314.69C651.78 315.94 650.77 316.95 649.53 316.95C649.53 316.95 649.53 316.95 649.53 316.95C649.53 316.95 601.72 316.95 596.41 316.95Z" id="a28enCvE3A"></path><path d="M596.41 341.26C595.16 341.26 594.15 340.25 594.15 339.01C594.15 337.77 595.15 336.76 596.4 336.75C596.4 336.75 596.4 336.75 596.41 336.75C601.72 336.75 644.22 336.75 649.53 336.75C650.77 336.75 651.78 337.76 651.79 339C651.79 340.24 650.78 341.25 649.54 341.26C649.54 341.26 649.53 341.26 649.53 341.26C638.91 341.26 601.72 341.26 596.41 341.26Z" id="c3cdWGDdXM"></path><path d="M685.55 341.26C684.3 341.25 683.3 340.24 683.3 339C683.3 337.76 684.31 336.76 685.55 336.75C690.86 336.75 733.36 336.75 738.67 336.75C739.92 336.75 740.93 337.76 740.93 339C740.93 340.24 739.92 341.25 738.68 341.26C738.68 341.26 738.68 341.26 738.67 341.26C728.05 341.26 690.86 341.26 685.55 341.26Z" id="g25xegmYf0"></path><path d="M377.61 267.42C376.36 267.42 375.35 266.41 375.35 265.17C375.35 263.93 376.36 262.92 377.61 262.92C382.92 262.92 425.42 262.92 430.73 262.92C431.97 262.92 432.98 263.93 432.98 265.17C432.98 266.41 431.97 267.42 430.73 267.42C430.73 267.42 382.92 267.42 377.61 267.42Z" id="d1xGA8en3k"></path><path d="M378.28 607.33C377.04 607.33 376.03 606.32 376.03 605.08C376.03 603.84 377.04 602.83 378.28 602.83C396.83 602.83 545.22 602.83 563.77 602.83C565.01 602.83 566.02 603.84 566.02 605.08C566.02 606.32 565.01 607.33 563.77 607.33C526.67 607.33 396.83 607.33 378.28 607.33Z" id="b3OjnwiKu"></path><path d="M377.38 656.85C376.14 656.85 375.13 655.84 375.13 654.6C375.13 653.36 376.14 652.35 377.38 652.35C395.93 652.35 544.32 652.35 562.87 652.35C564.11 652.35 565.12 653.36 565.12 654.6C565.12 655.84 564.11 656.85 562.87 656.85C525.77 656.85 395.93 656.85 377.38 656.85Z" id="bvIoveVdz"></path><path d="M377.83 681.61C376.59 681.62 375.58 680.61 375.57 679.37C375.57 678.12 376.58 677.11 377.82 677.11C377.82 677.11 377.83 677.11 377.83 677.11C396.38 677.11 544.77 677.11 563.32 677.11C564.56 677.11 565.57 678.12 565.57 679.36C565.57 680.6 564.57 681.61 563.33 681.61C563.32 681.61 563.32 681.61 563.32 681.61C526.22 681.61 396.38 681.61 377.83 681.61Z" id="c2WbM0QON"></path><path d="M589.43 657.3C588.19 657.3 587.18 656.29 587.18 655.05C587.18 653.81 588.19 652.8 589.43 652.8C594.74 652.8 637.24 652.8 642.55 652.8C643.8 652.8 644.8 653.81 644.8 655.05C644.8 656.29 643.8 657.3 642.55 657.3C631.93 657.3 594.74 657.3 589.43 657.3Z" id="bh1GCohOi"></path><path d="M589.43 681.61C588.19 681.61 587.18 680.61 587.18 679.36C587.18 678.12 588.19 677.11 589.43 677.11C594.74 677.11 637.24 677.11 642.55 677.11C643.8 677.11 644.8 678.12 644.8 679.36C644.8 680.61 643.8 681.61 642.55 681.61C631.93 681.61 594.74 681.61 589.43 681.61Z" id="a2vxBt8daF"></path><path d="M678.57 657.3C677.33 657.3 676.32 656.29 676.32 655.05C676.32 653.81 677.33 652.8 678.57 652.8C683.88 652.8 726.38 652.8 731.69 652.8C732.94 652.8 733.95 653.81 733.95 655.05C733.95 656.29 732.94 657.3 731.69 657.3C721.07 657.3 683.88 657.3 678.57 657.3Z" id="bacW5d13X"></path><path d="M475.08 632.09C473.83 632.09 472.82 631.08 472.82 629.84C472.82 628.6 473.83 627.59 475.08 627.59C504.25 627.59 737.64 627.59 766.81 627.59C768.05 627.59 769.06 628.6 769.06 629.84C769.06 631.08 768.05 632.09 766.81 632.09C708.46 632.09 504.25 632.09 475.08 632.09Z" id="asTtBcfXG"></path><path d="M377.83 632.09C376.59 632.09 375.58 631.08 375.58 629.84C375.58 628.6 376.59 627.59 377.83 627.59C383.14 627.59 425.64 627.59 430.95 627.59C432.2 627.59 433.21 628.6 433.21 629.84C433.21 631.08 432.2 632.09 430.95 632.09C420.33 632.09 383.14 632.09 377.83 632.09Z" id="a11gwh4mxn"></path><path d="M475.08 706.83C473.83 706.83 472.82 705.82 472.82 704.58C472.82 703.34 473.82 702.33 475.07 702.32C475.07 702.32 475.07 702.32 475.08 702.32C504.25 702.32 737.64 702.32 766.81 702.32C768.05 702.32 769.06 703.33 769.06 704.57C769.06 705.82 768.05 706.83 766.81 706.83C708.46 706.83 504.25 706.83 475.08 706.83Z" id="a1vWESVaJP"></path><path d="M377.83 706.83C376.59 706.83 375.58 705.82 375.57 704.58C375.57 703.34 376.58 702.33 377.82 702.32C377.82 702.32 377.83 702.32 377.83 702.32C383.14 702.32 425.64 702.32 430.95 702.32C432.2 702.32 433.21 703.33 433.21 704.57C433.21 705.81 432.21 706.82 430.96 706.83C430.96 706.83 430.96 706.83 430.95 706.83C420.33 706.83 383.14 706.83 377.83 706.83Z" id="e4Ajm3JD7"></path><path d="M446.94 472.27L518.97 543.4L535.18 527.19L480.7 472.72L535.63 417.79L518.97 401.13L518.97 401.13L446.94 472.27Z" id="bLxMtXSnU"></path><path d="M697.25 472.27L625.22 543.4L609.01 527.19L663.49 472.72L608.56 417.79L625.22 401.13L625.22 401.13L697.25 472.27Z" id="cx1gJlkZ6"></path><path d="M216.16 168.04C211.19 168.04 207.16 172.07 207.16 177.04C207.16 182.01 211.19 186.04 216.16 186.04C221.13 186.04 225.15 182.01 225.15 177.04C225.15 172.07 221.13 168.04 216.16 168.04Z" id="bhqJRejMX"></path><path d="M240.15 168.04C235.18 168.04 231.15 172.07 231.15 177.04C231.15 182.01 235.18 186.04 240.15 186.04C245.12 186.04 249.15 182.01 249.15 177.04C249.15 172.07 245.12 168.04 240.15 168.04Z" id="dT9MVgx8b"></path><path d="M264.15 168.04C259.18 168.04 255.15 172.07 255.15 177.04C255.15 182.01 259.18 186.04 264.15 186.04C269.12 186.04 273.15 182.01 273.15 177.04C273.15 172.07 269.12 168.04 264.15 168.04Z" id="bMvDxpF0e"></path><path d="M948.03 192.04C948.03 192.04 948.03 192.04 948.03 192.04C948.03 193.84 948.03 194.84 948.03 195.04C948.03 195.04 948.03 195.04 948.03 195.04C496.91 195.04 246.28 195.04 196.16 195.04C196.16 195.04 196.16 195.04 196.16 195.04C196.16 193.24 196.16 192.24 196.16 192.04C196.16 192.04 196.16 192.04 196.16 192.04C647.28 192.04 897.91 192.04 948.03 192.04Z" id="c17ewVM4F6"></path><path d="M1041.34 693.45C994.58 693.45 956.68 671.18 956.68 607.42C956.68 543.66 1041.34 462.55 1041.34 462.55C1041.34 462.55 1126 543.66 1126 607.42C1126 671.18 1088.1 693.45 1041.34 693.45Z" id="d2l3u5gMbR"></path><path d="M1039.12 630.33L1075.21 564.31L1039.26 621.96L1039.65 597.97L1064.52 550.2L1039.75 591.62L1039.75 591.62L1040.45 548.46L1067.08 510.44L1040.56 541.68L1041 462.55L1038.25 567.3L1038.47 562.98L1011.4 521.54L1038.04 571.28L1035.52 619.47L1035.44 618.19L1004.23 574.58L1035.35 622.71L1035.03 628.74L1034.97 628.83L1035 629.32L1028.6 751.6L1037.15 751.6L1038.18 688.44L1069.22 640.42L1038.25 683.69L1038.25 683.69L1039.12 630.33Z" id="a1DfpYnyvb"></path><path d="M114.42 754.54C109.35 755.92 103.92 755.42 98.79 756.6C96.69 757.08 94.4 758.1 93.74 760.15C93.25 761.65 93.78 763.27 94.29 764.77C99.96 781.39 103.37 799.03 112.41 814.08C116.21 820.4 120.92 826.13 126.4 831.07C128.46 832.92 130.79 834.73 133.54 835.02C137.52 835.44 141.08 832.56 141.5 828.58C141.64 827.3 141.43 826.01 140.91 824.84C140.09 823.04 138.59 821.65 137.62 819.93C136.56 817.74 135.95 815.36 135.8 812.94C134.9 805.83 134.04 798.4 136.51 791.68C138.16 787.16 141.19 783.32 143.71 779.23C146.24 775.14 148.33 770.46 147.77 765.69C147.39 762.43 145.8 759.45 144.12 756.64C142.44 753.81 139.12 746.23 135.74 745.29C132.23 744.31 125.66 749.47 122.6 751.04C120 752.48 117.26 753.66 114.42 754.54Z" id="bripSZqwt"></path><path d="M214.36 813.18C213.3 815.97 210.68 817.88 209.32 820.54C207.44 824.24 208.29 828.72 209.54 832.68C210.32 835.16 211.35 837.74 213.45 839.28C215.25 840.39 217.29 841.05 219.4 841.19C237.44 843.68 255.76 842.25 273.95 842.77C277.27 842.87 280.78 842.98 283.68 841.36C286.57 839.74 288.36 835.67 286.39 833C284.62 830.6 281.13 830.62 278.15 830.48C270.4 830.09 263.02 827.05 257.24 821.87C256.1 820.89 255.11 819.75 254.31 818.49C253.69 817.37 253.18 816.19 252.78 814.97C250.22 808.06 247.19 801.34 243.69 794.86C242.72 793.04 241.61 791.15 239.79 790.18C238.46 789.58 237.01 789.26 235.55 789.26C231.01 788.96 219.27 787.42 215.76 790.95C212.52 794.21 215.09 804.3 215.02 808.43C215.07 810.04 214.85 811.65 214.36 813.18Z" id="a3a2v3E3N"></path><path d="M242.93 347.76C226.93 347.76 213.96 360.73 213.96 376.73C213.96 392.73 226.93 405.7 242.93 405.7C258.93 405.7 271.9 392.73 271.9 376.73C271.9 360.73 258.93 347.76 242.93 347.76Z" id="ccMLNxDf6"></path><path d="M207.87 412.08C211.88 412.9 243.93 419.43 247.94 420.25C246.48 414.4 246.29 408.31 247.38 402.39C247.77 400.95 247.86 399.45 247.62 397.98C246.86 395.07 243.59 393.67 240.66 393C233.35 391.34 226.88 390.44 220.09 387.21C218.01 390.77 218.3 396.55 216.77 400.65C215.05 405.26 212.12 409.6 207.87 412.08Z" id="aHiDCUNJ7"></path><path d="M234.84 401.94C239.98 404.65 244.23 408.74 248.41 412.77C252.26 416.49 256.37 420.74 256.65 426.09C256.78 428.68 255.97 431.21 255.56 433.77C254.06 444.62 259.59 455.24 269.34 460.23C272.52 465.54 273.18 471.96 273.23 478.14C273.41 501.58 266.02 525.3 271.3 548.13C272.54 553.49 274.46 558.68 275.53 564.08C276.92 571.07 276.85 578.25 277.57 585.34C278.36 593.02 280.08 600.57 282.69 607.83C280.94 610.61 277.31 611.67 274.05 611.45C270.78 611.22 267.72 609.8 264.81 608.31C250.69 601.08 237.75 591.56 223.13 585.42C213.45 581.35 203.14 578.82 193.76 574.13C184.37 569.44 175.64 561.99 172.77 551.89C171.53 547.53 171.45 542.93 171.38 538.39C171.1 519.28 170.83 499.96 174.99 481.31C178.66 464.86 185.73 449.12 187.27 432.34C187.78 426.87 187.79 421.03 190.84 416.47C195.15 410.02 204.47 408.35 207.53 401.23C216.27 397.28 226.33 397.54 234.84 401.94Z" id="a1ksi24G00"></path><path d="M234.18 375.27C236.91 375.93 239.42 377.33 242.18 377.86C243.44 378.22 244.8 378.03 245.92 377.34C246.88 376.39 247.46 375.12 247.53 373.77C248.5 368.03 248.72 362.19 248.2 356.39C248.06 355.58 248.11 354.74 248.36 353.95C249.04 352.31 251.12 351.92 252.82 351.39C258.59 349.44 262.3 343.83 261.84 337.76C261.79 336.35 261.2 335.01 260.18 334.02C259 333.07 257.36 333.01 255.84 332.99C244.16 332.9 234.82 333 232.48 333C229.6 333.02 226.57 333.1 224.07 334.53C222.23 335.59 220.85 337.3 219.19 338.64C214.87 342.13 209.02 342.84 203.75 344.63C201.19 345.36 198.85 346.76 196.99 348.67C195.24 350.67 194.4 353.64 195.5 356.06C196.06 357.07 196.69 358.04 197.38 358.96C200.49 363.93 198.42 370.36 198.88 376.2C199.46 383.49 210.25 395.31 217.56 397.03C229.36 399.82 222.54 381.92 226.45 377.14C228.16 374.91 231.45 374.61 234.18 375.27Z" id="d8yJvK66r"></path><path d="M211.54 712.66C211.19 720.16 208.48 727.37 207.99 734.86C207.61 740.45 208.47 746.1 207.7 751.65C207.2 755.2 206.04 758.62 205.33 762.14C203.03 773.71 205.55 785.72 212.3 795.4C212.79 796.22 213.49 796.89 214.32 797.36C215.12 797.66 215.98 797.77 216.83 797.69C225.26 797.52 233.67 796.76 241.99 795.4C242.6 795.38 243.18 795.12 243.61 794.69C243.8 794.4 243.92 794.08 243.96 793.74C245.5 785.8 241.98 777.85 241.09 769.81C240.13 761.23 242.19 752.64 244.24 744.25C245.16 740.12 246.32 736.03 247.7 732.03C248.69 729.33 249.88 726.71 250.74 723.97C251.95 719.66 252.69 715.23 252.94 710.77C253.83 700.19 253.79 691.69 253.88 689.57C254.09 682.86 253.53 676.15 252.22 669.56C250.34 661.23 246.5 653.49 242.69 645.84C240.65 646.33 238.73 647.23 237.07 648.51C232.16 651.69 227.03 654.52 221.72 656.99C218.15 658.64 211.2 659.82 208.94 663.27C206.71 666.67 208.15 673.62 208.32 677.37C208.61 683.82 209.2 690.24 210.1 696.64C211.23 703.74 211.71 709.09 211.54 712.66Z" id="aePkroamA"></path><path d="M211.54 712.66C211.19 720.16 208.48 727.37 207.99 734.86C207.61 740.45 208.47 746.1 207.7 751.65C207.2 755.2 206.04 758.62 205.33 762.14C203.03 773.71 205.55 785.72 212.3 795.4C212.79 796.22 213.49 796.89 214.32 797.36C215.12 797.66 215.98 797.77 216.83 797.69C225.26 797.52 233.67 796.76 241.99 795.4C242.6 795.38 243.18 795.12 243.61 794.69C243.8 794.4 243.92 794.08 243.96 793.74C245.5 785.8 241.98 777.85 241.09 769.81C240.13 761.23 242.19 752.64 244.24 744.25C245.16 740.12 246.32 736.03 247.7 732.03C248.69 729.33 249.88 726.71 250.74 723.97C251.95 719.66 252.69 715.23 252.94 710.77C253.83 700.19 253.79 691.69 253.88 689.57C254.09 682.86 253.53 676.15 252.22 669.56C250.34 661.23 246.5 653.49 242.69 645.84C240.65 646.33 238.73 647.23 237.07 648.51C232.16 651.69 227.03 654.52 221.72 656.99C218.15 658.64 211.2 659.82 208.94 663.27C206.71 666.67 208.15 673.62 208.32 677.37C208.61 683.82 209.2 690.24 210.1 696.64C211.23 703.74 211.71 709.09 211.54 712.66Z" id="a2wLzf2z5o"></path><path d="M177.65 614.44C189.76 638.82 198.16 664.84 206.52 690.74C207.15 692.68 207.77 694.8 207.08 696.72C206.47 698.08 205.49 699.24 204.25 700.06C198.49 704.44 191.15 706 184.28 708.29C177.65 710.5 171.29 713.48 165.34 717.17C160.37 720.25 155.71 723.81 151.05 727.36C149.57 728.5 137.73 737.54 136.25 738.67C135.29 739.32 134.45 740.13 133.77 741.07C132.34 743.31 132.93 746.24 133.64 748.8C135.52 755.58 137.95 762.2 140.89 768.59C141.37 769.99 142.29 771.2 143.52 772.03C145.83 773.27 148.66 771.63 150.42 769.69C152.19 767.74 153.71 765.33 156.2 764.49C158.69 763.66 161.42 764.67 164.02 764.31C168.22 763.72 171 759.85 174.03 756.88C186.39 744.75 207.03 745.63 220.63 734.91C222.6 733.15 224.68 731.52 226.86 730.04C229.16 728.68 231.77 727.94 234.16 726.73C241.41 723.08 245.97 715.53 248.42 707.78C250.86 700.03 251.56 691.86 253.31 683.92C254.22 679.82 255.41 675.77 255.82 671.59C256.08 667.7 255.99 663.8 255.56 659.92C255.07 653.85 251.15 605.29 250.66 599.22C250.26 594.28 249.86 589.33 249.08 584.43C234.51 584.95 219.94 585.54 205.36 585.71C193.76 585.85 181.94 586.66 170.93 582.99C167.08 593.35 172.74 604.54 177.65 614.44Z" id="aW8OqciLz"></path><path d="M175.68 598.56C178.99 596.82 181.56 593.89 184.89 592.16C189.35 589.84 194.63 589.93 199.66 590.07C207.62 590.29 215.68 590.53 223.34 592.72C231.27 594.97 238.98 599.32 247.17 598.45C248.6 598.3 250.16 597.89 250.93 596.69C251.39 595.81 251.6 594.83 251.55 593.85C251.58 593.13 251.79 587.41 251.82 586.69C251.98 585.45 251.79 584.2 251.25 583.07C250.56 582.13 249.62 581.41 248.53 580.99C236.87 575.34 223.57 574.29 210.63 573.85C200.75 573.51 192.85 573.6 190.87 573.57C185.28 573.6 178.57 572.8 173.14 574.29C165.84 576.29 161.87 591.24 165.57 597.19C167.55 600.37 172.36 600.31 175.68 598.56Z" id="bGvd9wAfF"></path><path d="M194.39 399.26C192.55 399.13 190.7 399.45 189 400.19C186.87 401.26 185.47 403.34 183.86 405.09C179.34 409.98 172.8 412.59 168.16 417.37C163.8 421.85 161.38 428.52 163.1 434.52C164.82 440.52 171.3 445.13 177.38 443.68C179.83 435.76 184.88 428.9 191.71 424.21C195.27 421.93 199.02 419.96 202.92 418.33C209.78 415.21 217.46 412.04 224.63 414.38C227.27 415.37 229.77 416.73 232.04 418.42C233.23 419.22 242.8 425.64 243.99 426.44C242.6 420.95 241.35 414.79 238.8 409.73C223.52 409.59 209.67 399.51 194.39 399.26Z" id="a391NpmT9"></path><path d="M176.07 447.78C175.77 449.92 174.01 451.55 173.28 453.58C172.52 455.68 172.92 458 172.64 460.22C172.35 461.83 171.92 463.41 171.36 464.94C170.07 469.54 169.18 474.23 168.68 478.97C168.41 480.97 166.27 496.94 166 498.94C165.54 501.95 165.25 504.98 165.16 508.02C165.29 510.29 165.14 512.57 164.7 514.8C164.11 516.98 162.8 518.89 161.92 520.98C161.04 523.06 160.63 525.58 161.82 527.5C157.83 530.82 156.64 537.35 159.43 541.73C159.96 542.41 160.38 543.18 160.66 544C160.82 545.14 160.63 546.3 160.12 547.34C159.85 548.06 157.69 553.82 157.42 554.54C156.72 556.39 156.5 559.19 158.43 559.62C156.83 561.27 155.59 563.23 154.78 565.38C153.98 567.57 154.34 570.02 155.75 571.89C156.42 572.48 156.99 573.17 157.44 573.94C157.71 575.02 157.64 576.15 157.25 577.18C156.43 580.37 156.96 583.74 158.72 586.52C160.56 589.28 163.87 590.7 167.14 590.12C172.55 588.9 177.41 586.98 182.86 587.98C194.61 590.13 206.39 592.3 217.76 595.93C230.75 600.07 243.32 606.15 256.88 607.43C257.78 607.61 258.7 607.47 259.5 607.02C260.19 606.37 260.62 605.48 260.71 604.53C262.81 594.7 264.48 586.84 264.9 584.87C266.59 577.61 267.88 570.26 268.76 562.85C269.23 558.07 269.37 553.26 269.51 548.46C269.61 544.64 270.48 514.06 270.59 510.23C271.09 504.6 270.34 498.93 268.39 493.62C267.77 491.63 262.79 475.76 262.17 473.77C258.62 462.45 250.48 452.4 247.59 440.9C245.75 433.61 244.4 425.8 239.48 420.12C232.47 412.03 220.34 410.77 209.72 412.16C204.93 412.79 200.09 413.87 195.94 416.36C191.14 419.24 187.61 423.77 184.19 428.19C181.37 431.84 178.5 434.78 175.62 438.37C173.59 440.9 176.51 444.57 176.07 447.78Z" id="a1BlxcN3xo"></path><path d="M204.25 561.76C206.13 567.96 205.97 574.65 207.85 580.86C208.64 583.47 209.78 585.97 210.35 588.63C211.67 594.84 209.74 601.26 207.35 607.14C204.95 613.02 202.03 618.82 201.26 625.12C200.71 629.56 201.5 634.57 204.92 637.45C208.47 640.44 213.63 640.24 218.25 639.84C219.91 639.79 221.55 639.45 223.09 638.83C226.63 637.16 228.12 632.97 228.95 629.15C231.72 616.33 230.93 603.05 230.12 589.96C229.91 586.53 228.23 559.15 228.01 555.73C227.61 549.14 227.18 542.41 225.14 536.09C224.41 533.78 223.12 529.13 221.02 527.66C218.93 526.21 212.99 526.14 210.41 526.02C198.31 525.45 198.45 542.34 200.41 550.8C201.28 554.57 203.12 558.05 204.25 561.76Z" id="bg3JnnD6P"></path><path d="M205.84 425.13C203.54 426.71 201.52 428.67 199.87 430.93C194.53 437.44 188.88 444.92 189.67 453.3C189.97 456.45 191.17 459.42 191.99 462.47C195.57 475.85 191.61 490 192.07 503.84C192.33 511.84 194.07 519.7 195.8 527.52C196.15 529.11 196.72 530.96 198.26 531.49C199.42 531.9 200.67 531.38 201.82 530.94C210.49 527.74 220.18 528.96 227.78 534.21C230.64 532.68 229.57 527.85 228.93 524.67C227.02 515.21 229.61 505.46 232.76 496.34C235.9 487.22 239.66 478.11 240.19 468.48C240.78 457.56 237.16 446.91 233.59 436.58C232.81 434.33 231.96 431.96 230.15 430.4C228.6 429.25 226.83 428.44 224.95 428.03C221.15 426.91 217.31 426.26 213.81 424.42C211.34 423.13 208.23 423.69 205.84 425.13Z" id="e2bCY7gost"></path></defs><g><g><use xlink:href="#cdnN4yhVL" opacity="1" fill="#f2f2f2" fill-opacity="1"></use><g><use xlink:href="#cdnN4yhVL" opacity="1" fill-opacity="0" stroke="#000000" stroke-width="1" stroke-opacity="0"></use></g></g><g><use xlink:href="#d1BnyZljiw" opacity="1" fill="#002351" fill-opacity="1"></use><g><use xlink:href="#d1BnyZljiw" opacity="1" fill-opacity="0" stroke="#000000" stroke-width="1" stroke-opacity="0"></use></g></g><g><use xlink:href="#cGbU89HK3" opacity="1" fill="#100c3e" fill-opacity="1"></use><g><use xlink:href="#cGbU89HK3" opacity="1" fill-opacity="0" stroke="#000000" stroke-width="1" stroke-opacity="0"></use></g></g><g><use xlink:href="#a1lCIU7kVw" opacity="1" fill="#002351" fill-opacity="1"></use><g><use xlink:href="#a1lCIU7kVw" opacity="1" fill-opacity="0" stroke="#000000" stroke-width="1" stroke-opacity="0"></use></g></g><g><use xlink:href="#i2jQyvrIVr" opacity="1" fill="#100c3e" fill-opacity="1"></use><g><use xlink:href="#i2jQyvrIVr" opacity="1" fill-opacity="0" stroke="#000000" stroke-width="1" stroke-opacity="0"></use></g></g><g><use xlink:href="#aUUUeWIG" opacity="1" fill="#002351" fill-opacity="1"></use><g><use xlink:href="#aUUUeWIG" opacity="1" fill-opacity="0" stroke="#000000" stroke-width="1" stroke-opacity="0"></use></g></g><g><use xlink:href="#b2SJfQYTZn" opacity="1" fill="#f2f2f2" fill-opacity="1"></use><g><use xlink:href="#b2SJfQYTZn" opacity="1" fill-opacity="0" stroke="#000000" stroke-width="1" stroke-opacity="0"></use></g></g><g><use xlink:href="#b1jTCAIFay" opacity="1" fill="#f2f2f2" fill-opacity="1"></use><g><use xlink:href="#b1jTCAIFay" opacity="1" fill-opacity="0" stroke="#000000" stroke-width="1" stroke-opacity="0"></use></g></g><g><use xlink:href="#f1zRkmBdke" opacity="1" fill="#f2f2f2" fill-opacity="1"></use><g><use xlink:href="#f1zRkmBdke" opacity="1" fill-opacity="0" stroke="#000000" stroke-width="1" stroke-opacity="0"></use></g></g><g><use xlink:href="#dErBVEIDZ" opacity="1" fill="#f2f2f2" fill-opacity="1"></use><g><use xlink:href="#dErBVEIDZ" opacity="1" fill-opacity="0" stroke="#000000" stroke-width="1" stroke-opacity="0"></use></g></g><g><use xlink:href="#ayhotaeI1" opacity="1" fill="#f2f2f2" fill-opacity="1"></use><g><use xlink:href="#ayhotaeI1" opacity="1" fill-opacity="0" stroke="#000000" stroke-width="1" stroke-opacity="0"></use></g></g><g><use xlink:href="#eV3O68Bd0" opacity="1" fill="#f2f2f2" fill-opacity="1"></use><g><use xlink:href="#eV3O68Bd0" opacity="1" fill-opacity="0" stroke="#000000" stroke-width="1" stroke-opacity="0"></use></g></g><g><use xlink:href="#c60faSxZ5" opacity="1" fill="#f2f2f2" fill-opacity="1"></use><g><use xlink:href="#c60faSxZ5" opacity="1" fill-opacity="0" stroke="#000000" stroke-width="1" stroke-opacity="0"></use></g></g><g><use xlink:href="#a28enCvE3A" opacity="1" fill="#f2f2f2" fill-opacity="1"></use><g><use xlink:href="#a28enCvE3A" opacity="1" fill-opacity="0" stroke="#000000" stroke-width="1" stroke-opacity="0"></use></g></g><g><use xlink:href="#c3cdWGDdXM" opacity="1" fill="#f2f2f2" fill-opacity="1"></use><g><use xlink:href="#c3cdWGDdXM" opacity="1" fill-opacity="0" stroke="#000000" stroke-width="1" stroke-opacity="0"></use></g></g><g><use xlink:href="#g25xegmYf0" opacity="1" fill="#f2f2f2" fill-opacity="1"></use><g><use xlink:href="#g25xegmYf0" opacity="1" fill-opacity="0" stroke="#000000" stroke-width="1" stroke-opacity="0"></use></g></g><g><use xlink:href="#d1xGA8en3k" opacity="1" fill="#f2f2f2" fill-opacity="1"></use><g><use xlink:href="#d1xGA8en3k" opacity="1" fill-opacity="0" stroke="#000000" stroke-width="1" stroke-opacity="0"></use></g></g><g><use xlink:href="#b3OjnwiKu" opacity="1" fill="#f2f2f2" fill-opacity="1"></use><g><use xlink:href="#b3OjnwiKu" opacity="1" fill-opacity="0" stroke="#000000" stroke-width="1" stroke-opacity="0"></use></g></g><g><use xlink:href="#bvIoveVdz" opacity="1" fill="#f2f2f2" fill-opacity="1"></use><g><use xlink:href="#bvIoveVdz" opacity="1" fill-opacity="0" stroke="#000000" stroke-width="1" stroke-opacity="0"></use></g></g><g><use xlink:href="#c2WbM0QON" opacity="1" fill="#f2f2f2" fill-opacity="1"></use><g><use xlink:href="#c2WbM0QON" opacity="1" fill-opacity="0" stroke="#000000" stroke-width="1" stroke-opacity="0"></use></g></g><g><use xlink:href="#bh1GCohOi" opacity="1" fill="#f2f2f2" fill-opacity="1"></use><g><use xlink:href="#bh1GCohOi" opacity="1" fill-opacity="0" stroke="#000000" stroke-width="1" stroke-opacity="0"></use></g></g><g><use xlink:href="#a2vxBt8daF" opacity="1" fill="#f2f2f2" fill-opacity="1"></use><g><use xlink:href="#a2vxBt8daF" opacity="1" fill-opacity="0" stroke="#000000" stroke-width="1" stroke-opacity="0"></use></g></g><g><use xlink:href="#bacW5d13X" opacity="1" fill="#f2f2f2" fill-opacity="1"></use><g><use xlink:href="#bacW5d13X" opacity="1" fill-opacity="0" stroke="#000000" stroke-width="1" stroke-opacity="0"></use></g></g><g><use xlink:href="#asTtBcfXG" opacity="1" fill="#f2f2f2" fill-opacity="1"></use><g><use xlink:href="#asTtBcfXG" opacity="1" fill-opacity="0" stroke="#000000" stroke-width="1" stroke-opacity="0"></use></g></g><g><use xlink:href="#a11gwh4mxn" opacity="1" fill="#f2f2f2" fill-opacity="1"></use><g><use xlink:href="#a11gwh4mxn" opacity="1" fill-opacity="0" stroke="#000000" stroke-width="1" stroke-opacity="0"></use></g></g><g><use xlink:href="#a1vWESVaJP" opacity="1" fill="#f2f2f2" fill-opacity="1"></use><g><use xlink:href="#a1vWESVaJP" opacity="1" fill-opacity="0" stroke="#000000" stroke-width="1" stroke-opacity="0"></use></g></g><g><use xlink:href="#e4Ajm3JD7" opacity="1" fill="#f2f2f2" fill-opacity="1"></use><g><use xlink:href="#e4Ajm3JD7" opacity="1" fill-opacity="0" stroke="#000000" stroke-width="1" stroke-opacity="0"></use></g></g><g><use xlink:href="#bLxMtXSnU" opacity="1" fill="#fcfcff" fill-opacity="1"></use><g><use xlink:href="#bLxMtXSnU" opacity="1" fill-opacity="0" stroke="#000000" stroke-width="1" stroke-opacity="0"></use></g></g><g><use xlink:href="#cx1gJlkZ6" opacity="1" fill="#fcfcff" fill-opacity="1"></use><g><use xlink:href="#cx1gJlkZ6" opacity="1" fill-opacity="0" stroke="#000000" stroke-width="1" stroke-opacity="0"></use></g></g><g><use xlink:href="#bhqJRejMX" opacity="1" fill="#fcfcff" fill-opacity="1"></use><g><use xlink:href="#bhqJRejMX" opacity="1" fill-opacity="0" stroke="#000000" stroke-width="1" stroke-opacity="0"></use></g></g><g><use xlink:href="#dT9MVgx8b" opacity="1" fill="#fcfcff" fill-opacity="1"></use><g><use xlink:href="#dT9MVgx8b" opacity="1" fill-opacity="0" stroke="#000000" stroke-width="1" stroke-opacity="0"></use></g></g><g><use xlink:href="#bMvDxpF0e" opacity="1" fill="#fcfcff" fill-opacity="1"></use><g><use xlink:href="#bMvDxpF0e" opacity="1" fill-opacity="0" stroke="#000000" stroke-width="1" stroke-opacity="0"></use></g></g><g><use xlink:href="#c17ewVM4F6" opacity="1" fill="#000000" fill-opacity="1"></use><g><use xlink:href="#c17ewVM4F6" opacity="1" fill-opacity="0" stroke="#000000" stroke-width="1" stroke-opacity="0"></use></g></g><g><use xlink:href="#d2l3u5gMbR" opacity="1" fill="#f2f2f2" fill-opacity="1"></use><g><use xlink:href="#d2l3u5gMbR" opacity="1" fill-opacity="0" stroke="#000000" stroke-width="1" stroke-opacity="0"></use></g></g><g><use xlink:href="#a1DfpYnyvb" opacity="1" fill="#3f3d56" fill-opacity="1"></use><g><use xlink:href="#a1DfpYnyvb" opacity="1" fill-opacity="0" stroke="#000000" stroke-width="1" stroke-opacity="0"></use></g></g><g><use xlink:href="#bripSZqwt" opacity="1" fill="#2f2e41" fill-opacity="1"></use><g><use xlink:href="#bripSZqwt" opacity="1" fill-opacity="0" stroke="#000000" stroke-width="1" stroke-opacity="0"></use></g></g><g><use xlink:href="#a3a2v3E3N" opacity="1" fill="#2f2e41" fill-opacity="1"></use><g><use xlink:href="#a3a2v3E3N" opacity="1" fill-opacity="0" stroke="#000000" stroke-width="1" stroke-opacity="0"></use></g></g><g><use xlink:href="#ccMLNxDf6" opacity="1" fill="#fbbebe" fill-opacity="1"></use><g><use xlink:href="#ccMLNxDf6" opacity="1" fill-opacity="0" stroke="#000000" stroke-width="1" stroke-opacity="0"></use></g></g><g><use xlink:href="#aHiDCUNJ7" opacity="1" fill="#fbbebe" fill-opacity="1"></use><g><use xlink:href="#aHiDCUNJ7" opacity="1" fill-opacity="0" stroke="#000000" stroke-width="1" stroke-opacity="0"></use></g></g><g><use xlink:href="#a1ksi24G00" opacity="1" fill="#2f2e41" fill-opacity="1"></use><g><use xlink:href="#a1ksi24G00" opacity="1" fill-opacity="0" stroke="#000000" stroke-width="1" stroke-opacity="0"></use></g></g><g><use xlink:href="#d8yJvK66r" opacity="1" fill="#2f2e41" fill-opacity="1"></use><g><use xlink:href="#d8yJvK66r" opacity="1" fill-opacity="0" stroke="#000000" stroke-width="1" stroke-opacity="0"></use></g></g><g><use xlink:href="#aePkroamA" opacity="1" fill="#2f2e41" fill-opacity="1"></use><g><use xlink:href="#aePkroamA" opacity="1" fill-opacity="0" stroke="#000000" stroke-width="1" stroke-opacity="0"></use></g></g><g><use xlink:href="#a2wLzf2z5o" opacity="1" fill="#000000" fill-opacity="1"></use><g><use xlink:href="#a2wLzf2z5o" opacity="1" fill-opacity="0" stroke="#000000" stroke-width="1" stroke-opacity="0"></use></g></g><g><use xlink:href="#aW8OqciLz" opacity="1" fill="#2f2e41" fill-opacity="1"></use><g><use xlink:href="#aW8OqciLz" opacity="1" fill-opacity="0" stroke="#000000" stroke-width="1" stroke-opacity="0"></use></g></g><g><use xlink:href="#bGvd9wAfF" opacity="1" fill="#2f2e41" fill-opacity="1"></use><g><use xlink:href="#bGvd9wAfF" opacity="1" fill-opacity="0" stroke="#000000" stroke-width="1" stroke-opacity="0"></use></g></g><g><use xlink:href="#a391NpmT9" opacity="1" fill="#fcfcff" fill-opacity="1"></use><g><use xlink:href="#a391NpmT9" opacity="1" fill-opacity="0" stroke="#000000" stroke-width="1" stroke-opacity="0"></use></g></g><g><use xlink:href="#a1BlxcN3xo" opacity="1" fill="#fcfcff" fill-opacity="1"></use><g><use xlink:href="#a1BlxcN3xo" opacity="1" fill-opacity="0" stroke="#000000" stroke-width="1" stroke-opacity="0"></use></g></g><g><use xlink:href="#bg3JnnD6P" opacity="1" fill="#fbbebe" fill-opacity="1"></use><g><use xlink:href="#bg3JnnD6P" opacity="1" fill-opacity="0" stroke="#000000" stroke-width="1" stroke-opacity="0"></use></g></g><g><use xlink:href="#e2bCY7gost" opacity="1" fill="#2f2e41" fill-opacity="1"></use><g><use xlink:href="#e2bCY7gost" opacity="1" fill-opacity="0" stroke="#000000" stroke-width="1" stroke-opacity="0"></use></g></g></g></svg>